<svg width="119" height="24" viewBox="0 0 119 24" fill="none" xmlns="http://www.w3.org/2000/svg">
<path d="M10.8911 2.34274C11.2724 1.45742 12.5276 1.45742 12.9089 2.34274L14.8596 6.87238C15.0186 7.24166 15.3667 7.49455 15.767 7.53168L20.6777 7.98713C21.6375 8.07615 22.0254 9.26997 21.3013 9.90615L17.5961 13.1611C17.294 13.4264 17.1611 13.8356 17.2495 14.2278L18.3338 19.039C18.5458 19.9793 17.5302 20.7171 16.7014 20.225L12.4608 17.707C12.1151 17.5017 11.6849 17.5017 11.3392 17.707L7.09859 20.225C6.26977 20.7171 5.25424 19.9793 5.46617 19.039L6.55051 14.2278C6.63891 13.8356 6.50596 13.4264 6.2039 13.1611L2.49874 9.90615C1.77456 9.26997 2.16246 8.07615 3.12226 7.98713L8.033 7.53168C8.43335 7.49455 8.78142 7.24166 8.94045 6.87238L10.8911 2.34274Z" fill="#FFC107"/>
<path d="M34.6912 2.34274C35.0724 1.45742 36.3277 1.45742 36.7089 2.34274L38.6596 6.87238C38.8186 7.24166 39.1667 7.49455 39.567 7.53168L44.4778 7.98713C45.4376 8.07615 45.8255 9.26997 45.1013 9.90615L41.3962 13.1611C41.0941 13.4264 40.9611 13.8356 41.0495 14.2278L42.1339 19.039C42.3458 19.9793 41.3303 20.7171 40.5015 20.225L36.2609 17.707C35.9152 17.5017 35.4849 17.5017 35.1392 17.707L30.8986 20.225C30.0698 20.7171 29.0543 19.9793 29.2662 19.039L30.3506 14.2278C30.439 13.8356 30.306 13.4264 30.0039 13.1611L26.2988 9.90615C25.5746 9.26997 25.9625 8.07615 26.9223 7.98713L31.8331 7.53168C32.2334 7.49455 32.5815 7.24166 32.7405 6.87238L34.6912 2.34274Z" fill="#FFC107"/>
<path d="M58.4912 2.34274C58.8725 1.45742 60.1277 1.45742 60.509 2.34274L62.4597 6.87238C62.6187 7.24166 62.9667 7.49455 63.3671 7.53168L68.2778 7.98713C69.2376 8.07615 69.6255 9.26997 68.9014 9.90615L65.1962 13.1611C64.8941 13.4264 64.7612 13.8356 64.8496 14.2278L65.9339 19.039C66.1459 19.9793 65.1303 20.7171 64.3015 20.225L60.0609 17.707C59.7152 17.5017 59.285 17.5017 58.9393 17.707L54.6987 20.225C53.8699 20.7171 52.8543 19.9793 53.0663 19.039L54.1506 14.2278C54.239 13.8356 54.1061 13.4264 53.804 13.1611L50.0988 9.90615C49.3747 9.26997 49.7626 8.07615 50.7224 7.98713L55.6331 7.53168C56.0334 7.49455 56.3815 7.24166 56.5405 6.87238L58.4912 2.34274Z" fill="#FFC107"/>
<path d="M82.2913 2.34274C82.6725 1.45742 83.9278 1.45742 84.309 2.34274L86.2597 6.87238C86.4187 7.24166 86.7668 7.49455 87.1671 7.53168L92.0779 7.98713C93.0377 8.07615 93.4256 9.26997 92.7014 9.90615L88.9962 13.1611C88.6942 13.4264 88.5612 13.8356 88.6496 14.2278L89.734 19.039C89.9459 19.9793 88.9304 20.7171 88.1016 20.225L83.861 17.707C83.5153 17.5017 83.085 17.5017 82.7393 17.707L78.4987 20.225C77.6699 20.7171 76.6544 19.9793 76.8663 19.039L77.9507 14.2278C78.0391 13.8356 77.9061 13.4264 77.604 13.1611L73.8989 9.90615C73.1747 9.26997 73.5626 8.07615 74.5224 7.98713L79.4331 7.53168C79.8335 7.49455 80.1816 7.24166 80.3406 6.87238L82.2913 2.34274Z" fill="#FFC107"/>
<path d="M106.091 2.34274C106.472 1.45742 107.728 1.45742 108.109 2.34274L110.06 6.87238C110.219 7.24166 110.567 7.49455 110.967 7.53168L115.878 7.98713C116.837 8.07615 117.225 9.26997 116.501 9.90615L112.796 13.1611C112.494 13.4264 112.361 13.8356 112.449 14.2278L113.534 19.039C113.746 19.9793 112.73 20.7171 111.901 20.225L107.661 17.707C107.315 17.5017 106.885 17.5017 106.539 17.707L102.299 20.225C101.47 20.7171 100.454 19.9793 100.666 19.039L101.75 14.2278C101.839 13.8356 101.706 13.4264 101.404 13.1611L97.6987 9.90615C96.9745 9.26997 97.3624 8.07615 98.3222 7.98713L103.233 7.53168C103.633 7.49455 103.981 7.24166 104.14 6.87238L106.091 2.34274Z" fill="#FFC107"/>
</svg>
