<svg width="79" height="53" viewBox="0 0 79 53" fill="none" xmlns="http://www.w3.org/2000/svg">
<path d="M18.822 23.7287C9.11565 24.8066 6.30369 35.5384 6.13285 40.9197H11.2625M18.822 23.7287C19.3419 23.671 19.8817 23.641 20.4418 23.6409C31.2411 23.6405 34.7508 23.6411 35.5608 23.6405C36.1496 23.587 37.0888 23.2914 37.7532 22.5606M18.822 23.7287C17.832 23.6993 15.0422 22.8306 15.0422 20.1308C15.0422 17.4592 16.3921 16.621 17.742 16.621C22.6017 16.621 32.969 16.621 35.5608 16.621C38.1526 16.621 38.6206 19.1408 38.5306 20.4007C38.5306 21.3633 38.2056 22.0629 37.7532 22.5606M17.472 34.7097H24.7615C26.2914 34.8 29.3512 36.1684 29.3512 40.9197H28.2713M11.2625 40.9197H28.2713M11.2625 40.9197C11.1599 42.9206 11.613 46.0621 13.4223 48.3934M28.2713 40.9197C28.3425 41.4755 28.3777 42.1192 28.3564 42.8092M28.3564 42.8092C28.243 46.4763 26.5343 51.4485 20.1719 51.4485C16.9221 51.4485 14.7867 50.1513 13.4223 48.3934M28.3564 42.8092H51.2197C53.1131 42.5591 55.6816 41.6226 57.9692 39.6518M58.2392 11.4914C61.047 15.8111 62.6489 20.4907 63.0988 22.2906C63.4283 24.8163 63.4418 27.0571 63.2139 29.0401M58.2392 11.4914C59.6791 11.6714 62.2889 10.9514 61.209 6.63171C59.8591 1.2321 56.6193 -0.65777 53.1095 3.66192C51.996 5.03244 51.4401 6.36332 51.2197 7.54342M58.2392 11.4914H51.7596M51.7596 11.4914C53.5595 15.3611 56.6193 22.5606 56.0793 27.1503C55.5896 31.3128 51.7596 37.9495 44.4701 37.6795C37.1807 37.4095 30.2262 31.2 37.7532 22.5606M51.7596 11.4914C51.3252 10.7854 50.8842 9.33895 51.2197 7.54342M63.2139 29.0401C66.3254 28.5002 73.2501 28.5542 76.0579 33.0899L72.2782 34.461M63.2139 29.0401C62.6309 34.1132 60.4676 37.4994 57.9692 39.6518M57.9692 39.6518L59.8591 38.9662M59.8591 38.9662C59.0491 44.2069 62.5589 53.6067 71.7382 51.1786C79.2977 49.179 78.2178 35.7897 72.2782 34.461M59.8591 38.9662L72.2782 34.461M13.4223 48.3934H1.27319M51.2197 7.54342H42.3103" stroke="#E17C2F" stroke-width="2.54642" stroke-linecap="round" stroke-linejoin="round"/>
</svg>
