<svg width="500" height="544" viewBox="0 0 500 544" fill="none" xmlns="http://www.w3.org/2000/svg">
<path d="M131.838 543.562H130.212L136.07 527.615H138.052L143.977 543.562H142.306L140.747 539.33H133.397L131.838 543.562ZM136.849 529.865L133.887 537.927H140.235L137.25 529.865C137.184 529.642 137.072 529.375 137.05 529.219C137.028 529.353 136.939 529.642 136.849 529.865Z" fill="white"/>
<path d="M124.754 543.562H113.662V542.092L122.839 529.085H113.729V527.615H124.798V529.041L115.578 542.092H124.754V543.562Z" fill="white"/>
<path d="M107.603 543.562H96.5112V542.092L105.687 529.085H96.578V527.615H107.647V529.041L98.4266 542.092H107.603V543.562Z" fill="white"/>
<path d="M89.4265 527.615V543.562H87.8229V527.615H89.4265Z" fill="white"/>
<path d="M75.9906 537.705H71.5139V543.562H69.9103V527.615H75.9906C79.0641 527.615 81.0018 529.62 81.0018 532.627C81.0018 535.522 79.0419 537.705 75.9906 537.705ZM75.7679 529.063H71.5139V536.257H75.6788C77.9951 536.257 79.3314 534.787 79.3314 532.604C79.3314 530.399 77.9728 529.063 75.7679 529.063Z" fill="white"/>
<path d="M273.725 543.562H272.122V527.615H278.068C281.298 527.615 283.258 529.397 283.258 532.226C283.258 534.52 282.055 536.123 280.006 536.68L283.414 543.562H281.632L278.38 536.947H273.725V543.562ZM273.725 529.063V535.5H278.113C280.318 535.5 281.61 534.297 281.61 532.27C281.61 530.199 280.251 529.063 278.068 529.063H273.725Z" fill="white"/>
<path d="M264.634 543.562H255.079V527.615H264.612V529.085H256.683V534.831H263.877V536.279H256.683V542.092H264.634V543.562Z" fill="white"/>
<path d="M240.151 528.863C236.476 528.863 234.159 531.58 234.159 535.656C234.159 539.798 236.609 542.315 240.195 542.315C242.868 542.315 245.474 541.023 245.474 537.192V536.368H239.705V534.943H246.988V543.585H245.719L245.563 541.046C244.716 542.627 242.712 543.83 240.128 543.83C235.607 543.83 232.489 540.578 232.489 535.656C232.489 530.778 235.607 527.348 240.173 527.348C243.536 527.348 246.142 529.264 246.765 532.159H245.028C244.36 529.976 242.489 528.863 240.151 528.863Z" fill="white"/>
<path d="M216.681 543.562H215.078V527.615H221.024C224.254 527.615 226.214 529.397 226.214 532.226C226.214 534.52 225.011 536.123 222.962 536.68L226.37 543.562H224.588L221.336 536.947H216.681V543.562ZM216.681 529.063V535.5H221.069C223.274 535.5 224.566 534.297 224.566 532.27C224.566 530.199 223.207 529.063 221.024 529.063H216.681Z" fill="white"/>
<path d="M195.292 538.016V527.615H196.896V537.95C196.896 540.756 198.433 542.27 201.217 542.27C203.934 542.27 205.471 540.711 205.471 537.95V527.615H207.074V538.016C207.074 541.624 204.847 543.829 201.217 543.829C197.52 543.829 195.292 541.647 195.292 538.016Z" fill="white"/>
<path d="M177.165 543.562V527.615H183C186.074 527.615 187.967 529.174 187.967 531.735C187.967 533.606 187.143 534.876 185.495 535.522C187.343 536.123 188.279 537.415 188.279 539.375C188.279 541.936 186.363 543.562 183.334 543.562H177.165ZM182.978 529.04H178.769V534.876H183.178C185.183 534.876 186.319 533.762 186.319 531.869C186.319 530.087 185.116 529.04 182.978 529.04ZM183.334 536.279H178.769V542.114H183.334C185.428 542.114 186.653 541.023 186.653 539.174C186.653 537.37 185.406 536.279 183.334 536.279Z" fill="white"/>
<path d="M416.921 526.413L415.228 523.696H416.609L417.901 525.656L419.17 523.696H420.551L418.858 526.413H416.921ZM412.644 531.758C412.644 529.086 414.782 527.326 417.99 527.326C420.863 527.326 422.756 528.93 423.001 531.602H421.375C421.197 529.798 419.972 528.774 417.967 528.774C415.718 528.774 414.248 529.932 414.248 531.736C414.248 533.139 415.072 534.03 416.742 534.453L419.482 535.121C421.976 535.723 423.268 537.148 423.268 539.309C423.268 542.07 421.13 543.83 417.834 543.83C414.738 543.83 412.644 542.204 412.444 539.598H414.092C414.181 541.268 415.651 542.36 417.834 542.36C420.172 542.36 421.665 541.224 421.665 539.398C421.665 537.972 420.863 537.037 419.148 536.636L416.453 535.968C413.958 535.366 412.644 533.941 412.644 531.758Z" fill="white"/>
<path d="M406.462 535.589C406.462 540.422 403.322 543.829 398.868 543.829C394.391 543.829 391.273 540.422 391.273 535.589C391.273 530.756 394.413 527.326 398.868 527.326C403.344 527.326 406.462 530.733 406.462 535.589ZM404.814 535.589C404.814 531.602 402.387 528.885 398.868 528.885C395.349 528.885 392.943 531.602 392.943 535.589C392.943 539.575 395.349 542.293 398.868 542.293C402.387 542.293 404.814 539.553 404.814 535.589Z" fill="white"/>
<path d="M377.999 528.863C374.324 528.863 372.007 531.58 372.007 535.656C372.007 539.798 374.457 542.315 378.043 542.315C380.716 542.315 383.322 541.023 383.322 537.193V536.369H377.553V534.943H384.836V543.585H383.567L383.411 541.046C382.564 542.627 380.56 543.83 377.976 543.83C373.455 543.83 370.337 540.578 370.337 535.656C370.337 530.778 373.455 527.348 378.021 527.348C381.384 527.348 383.99 529.264 384.613 532.159H382.876C382.208 529.976 380.337 528.863 377.999 528.863Z" fill="white"/>
<path d="M352.811 543.562H351.208V527.615H352.833L361.609 540.89V527.615H363.19V543.562H361.609L352.811 530.288V543.562Z" fill="white"/>
<path d="M332.621 543.562H330.995L336.853 527.615H338.835L344.759 543.562H343.089L341.53 539.331H334.18L332.621 543.562ZM337.632 529.865L334.67 537.927H341.018L338.033 529.865C337.966 529.642 337.855 529.375 337.833 529.219C337.81 529.353 337.721 529.642 337.632 529.865Z" fill="white"/>
<path d="M318.226 527.615V542.092H325.553V543.562H316.622V527.615H318.226Z" fill="white"/>
<path d="M246.486 0.826492C256.823 0.444168 265.952 -0.362686 278.135 0.184688C278.156 0.186502 278.179 0.189668 278.201 0.191516C286.939 0.638679 297.551 1.956 306.586 3.67592C313.747 4.98852 320.89 6.39809 327.995 7.89771C339.286 10.2875 350.534 12.8101 361.851 15.6289C362.82 15.8709 363.805 16.1203 364.767 16.3663C364.972 16.4188 365.177 16.4707 365.381 16.5234C375.588 18.2074 386.032 21.2035 393.202 24.4708C397.234 26.2704 400.337 28.2332 402.733 29.9352C403.724 30.6516 404.618 31.3211 405.496 31.9699C407.398 33.3767 409.112 34.6227 411.083 35.7661C412.138 36.3814 413.612 37.2051 415.553 38.4084C417.675 39.7785 420.505 41.4413 424.011 45.0996C427.601 48.6592 430.676 55.2325 431.332 60.2138C432.554 68.6669 431.657 74.9622 430.313 81.5162C429.193 86.234 427.934 91.0176 424.477 97.3064C424.235 97.4236 423.432 99.002 422.754 100.304C418.721 108.516 413.261 116.19 410.849 119.949C409.773 121.692 408.544 123.433 407.196 125.125C403.56 129.644 399.735 133.746 396.21 137.654C391.709 142.623 387.841 147.015 386.185 149.937C386.106 150.076 386.027 150.216 385.946 150.353C383.941 153.73 381.624 156.217 378.258 159.816C375.828 162.415 372.842 165.593 369.045 170.087C364.669 175.272 361.349 178.738 358.624 181.656C357.882 182.452 357.19 183.2 356.551 183.916C353.554 187.315 351.063 190.208 348.298 194.665C344.494 200.78 340.365 206.95 336.632 211.479C334.933 213.537 333.12 216.001 331.252 218.564C329.924 220.385 328.568 222.258 327.182 224.099C325.943 225.747 324.706 227.307 323.427 228.781C321.167 231.383 318.947 233.258 316.977 234.894C316.364 235.402 315.771 235.89 315.209 236.371C313.51 238.501 311.793 240.613 310.072 242.707C309.868 243.102 309.65 243.529 309.426 243.968C308.299 246.173 306.899 248.872 304.801 251.856C301.484 256.575 298.042 260.122 294.505 263.929C292.194 266.418 289.856 268.997 287.5 272.086C287.019 272.717 286.553 273.341 286.075 273.996C284.069 276.746 281.903 279.965 279.716 283.145C276.463 287.881 273.114 292.551 270.294 295.483C269.24 296.581 268.089 297.324 266.939 298.047C266.934 298.05 266.929 298.054 266.924 298.057C266.845 298.106 266.765 298.155 266.687 298.205C264.93 300.271 263.077 302.341 261.134 304.345C256.565 309.055 252.05 314.396 246.452 319.584C245.837 320.247 245.204 320.908 244.572 321.553C241.467 324.723 238.269 327.553 236.37 329.614C236.173 329.828 235.938 330.065 235.666 330.322C234.837 330.981 234.179 331.763 231.29 333.096C229.814 333.574 227.085 335.228 221.301 333.552C218.557 332.661 216.252 330.736 215.026 329.209C213.761 327.662 213.17 326.435 212.725 325.456C211.153 322.356 209.532 318.315 208.244 314.375C206.563 309.272 205.245 304.216 204.084 300.15C203.95 299.68 203.843 299.22 203.754 298.744C203.405 296.887 203.385 295.031 203.371 293.154C203.354 290.966 203.342 288.729 202.827 286.377C202.569 285.198 202.185 283.945 201.774 282.61C201.412 281.435 201.028 280.192 200.695 278.882C200.385 277.666 200.105 274.879 199.732 271.353C199.689 270.95 199.644 270.529 199.6 270.118C199.401 268.28 199.171 266.273 198.895 264.339C198.765 263.821 198.637 263.321 198.51 262.86C198.376 262.363 198.28 262.106 198.025 261.103C196.655 256.909 194.626 249.495 193.392 243.981C192.761 242.554 192.085 241.376 191.336 240.46C190.796 239.788 190.213 239.299 189.604 238.733C188.783 237.999 187.928 237.209 187.162 236.098C186.561 235.212 186.188 234.108 186.229 233.316C186.248 232.945 186.356 232.636 186.452 232.361C186.565 232.057 186.663 231.784 186.605 231.48C186.563 231.26 186.408 231.05 186.22 230.788C185.918 230.363 185.533 229.827 185.369 228.942C185.128 227.633 184.911 226.337 184.686 224.905C184.344 222.718 184.018 220.422 183.696 218.143C183.122 214.064 182.565 210.064 181.962 206.911C181.286 203.381 180.885 198.246 180.489 193.126C180.213 189.549 179.936 185.966 179.568 182.917C179.206 179.928 178.471 176.871 177.761 173.918C176.907 170.37 176.086 166.952 175.985 163.954C175.966 163.351 176.308 162.54 176.734 161.519C177.037 160.795 177.384 159.98 177.674 159.04C177.072 155.303 176.488 151.558 175.922 147.829C175.838 147.708 175.755 147.591 175.667 147.46C175.665 147.458 175.662 147.458 175.66 147.456C174.571 145.871 173.269 144.001 172.36 141.609C171.624 139.665 171.147 137.401 171.252 134.715C171.306 133.155 171.715 132.152 172.078 131.215C172.436 130.307 172.758 129.499 172.667 128.393C172.567 127.151 172.014 125.742 171.415 124.242C170.558 121.916 169.661 120.361 169.59 116.274C169.59 116.124 169.59 115.972 169.592 115.816C169.601 115.741 169.609 115.662 169.617 115.582C169.788 113.948 169.965 111.349 170.61 108.602C170.171 104.636 169.674 100.571 169.185 96.4552C168.683 92.3208 168.311 88.2113 167.983 84.2837C167.782 81.8855 167.591 79.56 167.373 77.3308C166.444 68.4976 163.634 54.3502 164.303 43.0421C164.305 42.9139 164.307 42.7846 164.31 42.6552C164.49 36.1724 165.77 29.9551 167.933 25.347C170.139 20.6529 173.058 18.0255 176.07 18.0323C179.082 18.0376 181.988 20.5937 184.313 25.1376C186.591 29.6011 188.113 35.6224 188.658 41.9679C188.668 42.0828 188.678 42.1979 188.687 42.3116C189.342 52.809 191.663 59.3252 194.457 72.0553C194.562 72.4565 194.667 72.8654 194.768 73.2843C194.817 73.48 194.865 73.6766 194.912 73.8715C195.965 78.2359 197.25 81.9522 198.592 85.4968C198.899 86.3109 199.209 87.117 199.516 87.9183C199.911 88.95 200.278 90.1443 200.627 91.446C202.123 97.2533 203.227 105.255 203.738 112.061C203.71 112.3 203.803 113.153 203.92 114.077C203.935 114.199 203.952 114.335 203.968 114.455C204.179 116.123 204.445 117.758 204.746 119.649C205.318 123.245 206.038 127.845 206.874 136.001C207.084 138.068 207.304 140.386 207.534 142.981C208.157 146.629 208.766 150.286 209.355 153.94C212.856 175.657 215.965 197.469 219.02 219.11C220.854 231.536 222.194 242.284 225.304 254.894C225.982 258.018 226.589 261.869 227.063 265.033C227.413 267.374 227.745 269.686 228.074 271.991C228.171 272.492 228.27 272.995 228.37 273.509C229.599 279.84 230.995 287.154 232.091 293.487C232.631 296.607 233.121 299.453 233.5 301.835C237.743 298.253 241.926 294.226 246.83 289.647C255.591 281.606 264.05 270.938 272.333 260.591C276.895 254.814 281.644 249.197 286.378 243.751C292.992 236.154 299.37 228.869 305.302 221.206C307.465 218.424 309.591 215.597 311.675 212.731C314.965 208.207 318.267 203.707 321.6 199.221C324.602 194.738 327.431 190.461 330.077 186.506C333.786 180.956 337.158 176.044 339.814 172.313C339.965 172.1 340.112 171.892 340.255 171.69C347.384 161.867 355.905 152.435 362.247 145.164C363.304 143.96 364.305 142.814 365.217 141.764C366.46 140.134 367.7 138.502 368.902 136.893C372.412 132.206 375.975 127.558 379.555 122.963C379.988 122.626 380.417 122.301 380.864 121.961C384.132 119.492 387.464 116.14 391.046 112.011C393.261 109.435 395.506 106.261 397.699 102.252C399.926 98.2442 401.085 94.9854 404.42 87.3357C404.645 86.9086 404.921 86.282 405.189 85.5787C406.465 82.0857 407.472 79.8131 408.309 78.1365C408.551 77.6302 408.772 77.1459 408.962 76.6503C409.612 74.9495 409.408 72.9959 409.028 70.8286C408.645 68.713 408.096 66.1576 407.843 64.1192C407.765 63.5119 407.718 62.9859 407.72 62.5147C408.399 60.1421 403.262 56.4725 399.711 54.6037C395.965 52.5728 392.901 51.4549 390.282 50.5139C389.945 50.4014 389.607 50.2899 389.287 50.1885C387.852 49.7294 386.58 49.3597 385.352 48.8912C381.396 47.3435 376.117 44.4661 371.842 42.2296C369.263 40.839 364.214 39.5531 359.305 38.8727C357.798 38.6545 356.278 38.4616 354.885 38.3105C352.576 38.0579 349.517 37.3568 345.92 36.5513C342.188 35.7151 337.862 34.7616 333.159 34.0683C321.271 32.3227 314.951 31.4327 309.865 30.7068C308.434 30.505 307.059 30.3064 305.73 30.1241C304.379 29.937 302.947 29.7319 301.449 29.5119C298.23 29.0416 294.724 28.5344 291.26 28.1259C285.694 27.4365 280.68 27.2477 275.363 27.0312C275.122 27.037 274.8 27.0401 274.466 27.0494C266.555 26.3482 256.509 26.2279 247.166 25.9615C244.402 26.2615 241.657 26.5953 238.932 26.9697C232.63 27.8302 226.465 27.7802 221.742 26.7353C220.88 26.5438 220.08 26.3215 219.373 26.0639C219.011 25.9383 218.688 25.7988 218.399 25.6474C218.157 25.4744 217.754 25.3848 217.999 25.0056C217.949 25.0317 217.796 25.0955 217.746 25.1194C214.777 24.4568 213.62 22.8761 212.723 21.1434C211.863 19.3839 212.46 17.0773 213.365 14.8824L213.196 14.9598C214.759 13.2252 215.659 12.0693 217.307 10.7289C221.572 7.1895 227.878 4.39257 234.69 2.94535C238.113 2.21714 241.544 1.5519 244.991 0.940287C245.291 0.910824 246.183 0.816606 246.486 0.826492ZM223.076 309.447C222.902 309.502 222.751 309.555 222.619 309.602C221.636 309.99 221.553 310.153 221.542 310.196C221.558 310.238 221.747 310.174 221.977 310.069C222.234 309.931 222.484 309.795 222.728 309.664C222.845 309.593 222.96 309.519 223.076 309.447Z" fill="white"/>
<path d="M276.369 63.4751C250.267 58.814 203.346 56.8719 183.148 56.4835C183.148 68.5245 185.712 92.6066 195.966 92.6066C208.784 92.6066 239.08 92.6066 261.22 96.1024C278.932 98.899 315.988 109.697 332.301 114.747C342.789 117.465 363.297 118.941 361.433 103.094C359.102 83.2845 308.996 69.3014 276.369 63.4751Z" fill="white"/>
<path d="M293.847 132.225C293.847 143.166 284.978 152.035 274.038 152.035C263.097 152.035 254.229 143.166 254.229 132.225C254.229 121.285 263.097 112.416 274.038 112.416C284.978 112.416 293.847 121.285 293.847 132.225Z" fill="white"/>
<path d="M291.517 132.225C291.517 122.572 283.691 114.747 274.038 114.747C264.385 114.747 256.559 122.572 256.559 132.225C256.559 141.879 264.385 149.704 274.038 149.704V152.035C263.097 152.035 254.229 143.166 254.229 132.225C254.229 121.285 263.097 112.416 274.038 112.416C284.978 112.416 293.847 121.285 293.847 132.225C293.847 143.166 284.978 152.035 274.038 152.035V149.704C283.691 149.704 291.517 141.879 291.517 132.225Z" fill="white"/>
<path d="M272.873 188.158C272.873 201.673 261.917 212.628 248.402 212.628C234.888 212.628 223.932 201.673 223.932 188.158C223.932 174.643 234.888 163.688 248.402 163.688C261.917 163.688 272.873 174.643 272.873 188.158Z" fill="white"/>
<path d="M270.542 188.158C270.542 175.93 260.63 166.018 248.402 166.018C236.175 166.018 226.262 175.93 226.262 188.158C226.262 200.386 236.175 210.298 248.402 210.298V212.628C234.888 212.628 223.932 201.673 223.932 188.158C223.932 174.643 234.888 163.688 248.402 163.688C261.917 163.688 272.873 174.643 272.873 188.158C272.873 201.673 261.917 212.628 248.402 212.628V210.298C260.63 210.298 270.542 200.386 270.542 188.158Z" fill="white"/>
<path d="M321.814 175.34C321.814 184.35 314.51 191.654 305.5 191.654C296.49 191.654 289.186 184.35 289.186 175.34C289.186 166.33 296.49 159.026 305.5 159.026C314.51 159.026 321.814 166.33 321.814 175.34Z" fill="white"/>
<path d="M319.483 175.34C319.483 167.617 313.223 161.357 305.5 161.357C297.777 161.357 291.517 167.617 291.517 175.34C291.517 183.063 297.777 189.323 305.5 189.323V191.654C296.49 191.654 289.186 184.35 289.186 175.34C289.186 166.33 296.49 159.026 305.5 159.026C314.51 159.026 321.814 166.33 321.814 175.34C321.814 184.35 314.51 191.654 305.5 191.654V189.323C313.223 189.323 319.483 183.063 319.483 175.34Z" fill="white"/>
<path d="M258.89 248.751C258.89 255.831 253.151 261.569 246.072 261.569C238.993 261.569 233.254 255.831 233.254 248.751C233.254 241.672 238.993 235.934 246.072 235.934C253.151 235.934 258.89 241.672 258.89 248.751Z" fill="white"/>
<path d="M256.559 248.751C256.559 242.959 251.864 238.264 246.072 238.264C240.28 238.264 235.585 242.959 235.585 248.751C235.585 254.543 240.28 259.239 246.072 259.239V261.569C238.993 261.569 233.254 255.831 233.254 248.751C233.254 241.672 238.993 235.934 246.072 235.934C253.151 235.934 258.89 241.672 258.89 248.751C258.89 255.831 253.151 261.569 246.072 261.569V259.239C251.864 259.239 256.559 254.543 256.559 248.751Z" fill="white"/>
<path d="M237.915 121.738C237.915 126.887 233.742 131.06 228.593 131.06C223.445 131.06 219.271 126.887 219.271 121.738C219.271 116.59 223.445 112.416 228.593 112.416C233.742 112.416 237.915 116.59 237.915 121.738Z" fill="white"/>
<path d="M235.585 121.738C235.585 117.877 232.454 114.747 228.593 114.747C224.732 114.747 221.602 117.877 221.602 121.738C221.602 125.599 224.732 128.73 228.593 128.73V131.06C223.445 131.06 219.271 126.887 219.271 121.738C219.271 116.59 223.445 112.416 228.593 112.416C233.742 112.416 237.915 116.59 237.915 121.738C237.915 126.887 233.742 131.06 228.593 131.06V128.73C232.454 128.73 235.585 125.599 235.585 121.738Z" fill="white"/>
<path d="M338.127 142.713C338.127 147.218 334.475 150.87 329.971 150.87C325.466 150.87 321.814 147.218 321.814 142.713C321.814 138.208 325.466 134.556 329.971 134.556C334.475 134.556 338.127 138.208 338.127 142.713Z" fill="white"/>
<path d="M335.797 142.713C335.797 139.495 333.188 136.886 329.971 136.886C326.753 136.886 324.144 139.495 324.144 142.713C324.144 145.931 326.753 148.539 329.971 148.539V150.87C325.466 150.87 321.814 147.218 321.814 142.713C321.814 138.208 325.466 134.556 329.971 134.556C334.475 134.556 338.127 138.208 338.127 142.713C338.127 147.218 334.475 150.87 329.971 150.87V148.539C333.188 148.539 335.797 145.931 335.797 142.713Z" fill="white"/>
<path d="M75.4467 305.608C76.6674 305.43 78.4517 305.149 80.0759 305.346C80.0804 305.347 80.085 305.348 80.0896 305.349C80.9862 305.42 82.0291 305.651 83.0118 305.892C84.4282 306.238 85.7211 306.607 86.3665 306.466C87.5024 306.217 88.8241 306.403 89.9829 306.603C91.0897 306.791 92.0549 306.988 92.6343 306.773C93.3255 306.518 93.8982 306.691 94.7395 306.971C95.3242 307.168 96.0356 307.414 97.0427 307.652C98.2121 307.93 99.025 308.346 99.7124 308.726C100.544 309.192 101.178 309.577 102.23 309.857C102.371 309.889 102.532 309.919 102.692 309.937C103.934 310.087 105.085 310.392 105.846 310.92C106.192 311.16 106.621 311.364 107.064 311.578C107.651 311.86 108.266 312.159 108.75 312.572C109.149 312.913 109.385 313.374 109.592 313.781C109.657 313.908 109.717 314.031 109.781 314.143C110.141 314.328 110.502 314.512 110.864 314.693C110.945 314.682 111.032 314.667 111.121 314.652C111.569 314.578 112.118 314.486 112.68 314.593C113.41 314.733 113.941 315.096 114.451 315.513C114.596 315.622 114.739 315.735 114.879 315.85C115.483 316.343 116.058 316.863 116.793 317.29C117.295 317.581 117.895 317.852 118.477 318.128C119.342 318.537 120.165 318.955 120.58 319.425C120.736 319.602 120.774 319.871 120.81 320.137V320.142C120.812 320.16 120.814 320.178 120.817 320.196C122.057 321.004 123.273 321.812 124.369 322.447C124.455 322.468 124.538 322.488 124.62 322.507C124.647 322.512 124.675 322.517 124.702 322.522C125.209 322.618 125.696 322.675 126.097 322.557C126.532 322.432 127.247 322.635 128.013 322.764C128.515 322.85 129.041 322.911 129.502 322.875C129.769 322.854 129.929 323.111 130.112 323.376C130.28 323.623 130.468 323.876 130.749 323.904C130.889 323.917 131.057 323.877 131.236 323.833C131.392 323.795 131.558 323.754 131.725 323.742C131.877 323.732 132.167 323.898 132.565 324.106C132.567 324.11 132.571 324.114 132.574 324.118C132.656 324.218 132.886 324.348 133.168 324.457C133.967 324.427 134.94 324.372 135.895 324.307C136.103 324.147 136.284 323.934 136.432 323.658C136.538 323.46 136.634 323.222 136.728 322.978C136.855 322.646 136.985 322.303 137.16 322.031C137.297 321.818 137.45 321.736 137.551 321.828C137.598 321.871 137.635 321.95 137.668 322.022C137.705 322.104 137.738 322.178 137.779 322.177C137.809 322.175 137.842 322.118 137.881 322.049C137.945 321.938 138.029 321.797 138.152 321.794C138.608 321.783 139.132 321.834 139.645 321.881C140.218 321.933 140.78 321.979 141.227 321.931C141.727 321.877 142.443 322.079 143.164 322.272C143.666 322.407 144.172 322.537 144.6 322.579C145.02 322.621 145.446 322.48 145.854 322.34C146.342 322.173 146.806 322.007 147.213 322.165C147.296 322.198 147.413 322.422 147.561 322.702C147.624 322.822 147.694 322.952 147.768 323.082C147.807 323.168 147.846 323.255 147.889 323.337C148.27 323.303 148.649 323.265 149.027 323.219C149.034 323.186 149.041 323.151 149.049 323.116V323.114C149.242 322.327 149.375 321.269 150.046 321.717C150.221 321.829 150.384 322.079 150.535 322.302C150.684 322.519 150.823 322.712 150.943 322.725C151.079 322.739 151.177 322.544 151.273 322.334C151.411 322.037 151.546 321.706 151.871 321.84C151.894 321.849 151.917 321.86 151.942 321.869C152.179 321.962 152.533 322.091 153.016 322.441C153.868 322.202 154.747 321.907 155.677 321.532C156.868 321.053 158.001 320.501 159.714 319.639C159.762 319.616 159.888 319.517 159.937 319.496C160.51 319.249 161.018 319.062 161.457 318.904C161.724 318.809 161.988 318.773 162.227 318.804C162.699 318.91 163.35 319.139 164.202 319.455C165.419 319.931 166.659 320.793 167.612 321.96C168.56 323.129 169.201 324.491 169.314 325.852C169.409 326.771 169.075 327.78 168.392 328.606C168.115 328.961 167.842 329.242 167.571 329.459C167.126 329.813 166.752 330.119 166.474 330.383L166.742 330.215C166.219 330.782 165.307 331.679 164.35 332.525C164.287 332.605 164.222 332.685 164.154 332.764C163.656 333.349 163.278 334.091 162.853 334.837C162.754 335.009 162.653 335.182 162.55 335.352C161.771 336.661 159.157 337.608 157.673 337.967C157.646 337.974 157.618 337.982 157.591 337.989C157.242 338.079 156.916 338.187 156.535 338.304C155.627 338.567 154.351 338.986 151.637 338.993C150.873 339.138 150.108 339.247 149.341 339.316C149.272 339.322 149.204 339.329 149.136 339.335C142.577 339.735 137.563 339.517 129.907 337.846C129.591 337.752 129.272 337.655 128.953 337.552C128.862 337.536 128.77 337.517 128.675 337.5C126.856 337.185 124.45 336.509 123.102 335.625C121.389 334.521 120.371 333.551 119.595 332.744C119.02 332.298 118.468 331.833 117.94 331.353C114.791 328.336 112.438 325.679 109.922 324.109C109.597 323.914 109.267 323.718 108.941 323.526C107.639 322.762 106.33 322.027 105.008 321.332C103.792 320.692 102.565 320.077 101.344 319.502C100.574 319.285 99.8285 319.121 99.1639 318.99C98.7932 318.917 98.444 318.853 98.142 318.804C97.8843 318.82 97.5864 318.812 97.3113 318.769C96.2126 318.588 94.6012 318.046 93.3398 317.713C93.1328 317.658 92.9397 317.609 92.7549 317.566C91.713 317.568 90.6432 317.613 89.5732 317.693C89.5036 317.631 89.4315 317.568 89.3593 317.502C88.4575 316.684 87.2929 316.68 85.4766 316.767C84.6848 316.806 83.7669 316.865 82.6841 316.896C81.9867 316.917 81.5995 316.639 81.2799 316.412C81.2669 316.402 81.2539 316.393 81.2412 316.384C81.1501 316.329 81.0645 316.278 80.9794 316.236C80.6434 316.072 80.325 316.316 79.9485 316.601C79.4602 316.969 78.8602 317.406 78.0322 317.101C75.424 316.114 74.5078 316.924 73.8627 317.57C73.6757 317.758 73.5148 317.931 73.3484 318.037C72.8053 318.375 72.0495 318.225 71.4002 317.998C71.2871 317.958 71.1602 317.95 71.0224 317.973C70.2713 318.125 69.372 318.584 68.6919 319.036C68.3632 319.255 67.8824 319.364 67.3309 319.486C66.7592 319.614 66.1097 319.758 65.4669 320.064C63.8463 320.839 63.0593 321.245 62.4286 321.576C62.2504 321.67 62.0868 321.757 61.9256 321.847C61.4147 322.129 60.7886 322.434 60.205 322.752C59.5041 323.132 58.873 323.534 58.4958 323.908C57.8023 324.112 57.204 324.322 56.7639 324.493C55.8939 325.009 55.0155 325.496 54.0943 325.973C53.0418 326.515 51.6384 326.553 50.2252 325.986C48.817 325.431 47.5192 324.237 47.2347 322.718C46.9582 321.204 46.6255 319.77 46.5383 318.544C46.4642 317.316 46.759 316.343 47.4168 315.765C47.9925 315.262 48.575 314.725 49.1396 314.181C50.4383 313.06 51.7647 312.211 53.061 311.505C55.8544 310.001 58.5579 309.107 61.1541 308.48C62.9657 308.048 64.731 307.725 66.3363 307.433C66.4976 307.404 66.6656 307.373 66.8234 307.344C67.2523 307.108 67.6553 306.875 67.9909 306.664C69.1221 306.139 70.238 305.762 71.0884 305.562C72.1841 305.307 72.9564 305.449 73.5782 305.574C74.0061 305.661 74.3679 305.745 74.7162 305.708C74.9023 305.688 75.1527 305.651 75.4467 305.608Z" fill="white"/>
<path d="M381.009 306.641C379.788 306.463 378.004 306.183 376.379 306.38C376.375 306.38 376.37 306.381 376.366 306.382C375.469 306.453 374.426 306.684 373.444 306.926C372.027 307.271 370.734 307.64 370.089 307.499C368.953 307.25 367.631 307.437 366.472 307.636C365.366 307.824 364.4 308.021 363.821 307.807C363.13 307.551 362.557 307.724 361.716 308.005C361.131 308.201 360.42 308.447 359.413 308.685C358.243 308.964 357.43 309.379 356.743 309.759C355.911 310.225 355.277 310.61 354.226 310.89C354.084 310.922 353.924 310.952 353.764 310.97C352.522 311.12 351.37 311.425 350.609 311.953C350.264 312.194 349.834 312.398 349.392 312.611C348.805 312.894 348.189 313.192 347.705 313.606C347.306 313.946 347.07 314.407 346.863 314.814C346.799 314.941 346.738 315.064 346.674 315.176C346.314 315.362 345.953 315.545 345.591 315.727C345.511 315.715 345.423 315.701 345.334 315.686C344.887 315.611 344.338 315.519 343.775 315.627C343.045 315.766 342.515 316.13 342.004 316.546C341.859 316.655 341.716 316.769 341.576 316.883C340.973 317.376 340.398 317.897 339.662 318.323C339.161 318.615 338.56 318.885 337.978 319.161C337.113 319.57 336.29 319.988 335.875 320.458C335.719 320.635 335.681 320.904 335.645 321.171V321.175C335.643 321.193 335.641 321.212 335.639 321.23C334.398 322.038 333.183 322.846 332.086 323.481C332.001 323.502 331.917 323.522 331.836 323.54C331.808 323.545 331.781 323.551 331.754 323.556C331.246 323.651 330.759 323.708 330.358 323.59C329.923 323.465 329.208 323.668 328.442 323.797C327.941 323.884 327.414 323.944 326.954 323.909C326.686 323.888 326.526 324.144 326.344 324.409C326.175 324.656 325.987 324.91 325.707 324.937C325.566 324.951 325.398 324.91 325.219 324.867C325.063 324.828 324.897 324.788 324.73 324.776C324.578 324.765 324.288 324.931 323.89 325.14C323.888 325.143 323.884 325.148 323.881 325.151C323.799 325.251 323.569 325.381 323.287 325.49C322.488 325.461 321.516 325.405 320.561 325.34C320.352 325.18 320.171 324.967 320.024 324.691C319.918 324.493 319.821 324.255 319.728 324.011C319.601 323.679 319.471 323.336 319.295 323.064C319.158 322.852 319.006 322.769 318.904 322.862C318.857 322.905 318.82 322.983 318.788 323.055C318.751 323.138 318.718 323.211 318.676 323.21C318.646 323.208 318.614 323.151 318.574 323.082C318.51 322.972 318.426 322.83 318.303 322.827C317.847 322.816 317.323 322.867 316.81 322.914C316.238 322.966 315.675 323.013 315.228 322.964C314.728 322.91 314.012 323.112 313.291 323.305C312.789 323.44 312.283 323.57 311.855 323.613C311.435 323.654 311.01 323.513 310.601 323.374C310.114 323.206 309.649 323.04 309.243 323.198C309.159 323.232 309.042 323.456 308.894 323.736C308.831 323.856 308.761 323.986 308.687 324.116C308.649 324.202 308.609 324.288 308.567 324.371C308.186 324.336 307.806 324.298 307.429 324.252C307.421 324.219 307.414 324.184 307.406 324.15V324.148C307.213 323.36 307.08 322.302 306.409 322.75C306.234 322.863 306.071 323.113 305.92 323.335C305.772 323.553 305.632 323.746 305.512 323.758C305.377 323.772 305.279 323.577 305.182 323.367C305.044 323.07 304.909 322.739 304.584 322.873C304.562 322.882 304.538 322.893 304.513 322.903C304.276 322.995 303.922 323.125 303.439 323.474C302.587 323.236 301.709 322.941 300.779 322.566C299.587 322.087 298.454 321.534 296.741 320.672C296.693 320.649 296.568 320.55 296.518 320.529C295.945 320.282 295.438 320.095 294.998 319.937C294.731 319.842 294.468 319.806 294.229 319.837C293.756 319.943 293.106 320.172 292.253 320.488C291.037 320.964 289.796 321.827 288.844 322.994C287.896 324.162 287.255 325.524 287.141 326.885C287.046 327.804 287.38 328.813 288.063 329.639C288.341 329.995 288.613 330.275 288.885 330.493C289.33 330.847 289.704 331.152 289.982 331.417L289.713 331.248C290.237 331.815 291.148 332.712 292.105 333.558C292.168 333.638 292.234 333.719 292.301 333.797C292.8 334.383 293.178 335.124 293.603 335.871C293.701 336.042 293.802 336.216 293.905 336.385C294.684 337.694 297.298 338.642 298.783 339C298.809 339.007 298.838 339.016 298.865 339.023C299.213 339.113 299.54 339.22 299.921 339.337C300.828 339.601 302.104 340.019 304.818 340.026C305.582 340.171 306.347 340.28 307.115 340.35C307.183 340.356 307.251 340.362 307.32 340.368C313.878 340.769 318.892 340.551 326.549 338.879C326.864 338.786 327.183 338.689 327.502 338.586C327.593 338.57 327.686 338.551 327.78 338.533C329.599 338.218 332.005 337.542 333.354 336.658C335.066 335.555 336.085 334.584 336.861 333.777C337.435 333.331 337.988 332.866 338.515 332.386C341.665 329.369 344.018 326.712 346.533 325.142C346.859 324.948 347.188 324.751 347.514 324.559C348.817 323.796 350.125 323.061 351.447 322.365C352.664 321.726 353.89 321.111 355.111 320.536C355.882 320.319 356.627 320.154 357.291 320.024C357.662 319.951 358.011 319.886 358.313 319.837C358.571 319.853 358.869 319.846 359.144 319.803C360.243 319.621 361.854 319.079 363.115 318.747C363.322 318.692 363.516 318.643 363.7 318.599C364.742 318.601 365.812 318.646 366.882 318.726C366.952 318.665 367.024 318.601 367.096 318.535C367.998 317.718 369.162 317.713 370.979 317.8C371.771 317.839 372.688 317.898 373.771 317.93C374.469 317.951 374.856 317.672 375.175 317.445C375.188 317.436 375.201 317.427 375.214 317.418C375.305 317.363 375.391 317.311 375.476 317.27C375.812 317.105 376.13 317.35 376.507 317.634C376.995 318.002 377.595 318.439 378.423 318.135C381.031 317.147 381.947 317.958 382.593 318.603C382.78 318.791 382.94 318.965 383.107 319.07C383.65 319.408 384.406 319.258 385.055 319.031C385.168 318.992 385.295 318.984 385.433 319.006C386.184 319.158 387.083 319.618 387.763 320.069C388.092 320.288 388.573 320.397 389.124 320.52C389.696 320.647 390.346 320.791 390.988 321.098C392.609 321.873 393.396 322.279 394.027 322.609C394.205 322.703 394.368 322.791 394.53 322.88C395.041 323.163 395.667 323.467 396.25 323.786C396.951 324.166 397.582 324.568 397.959 324.942C398.653 325.145 399.251 325.355 399.691 325.527C400.561 326.043 401.44 326.529 402.361 327.006C403.414 327.549 404.817 327.587 406.23 327.02C407.638 326.464 408.936 325.271 409.221 323.751C409.497 322.237 409.83 320.804 409.917 319.577C409.991 318.35 409.696 317.376 409.039 316.799C408.463 316.296 407.88 315.758 407.316 315.215C406.017 314.093 404.691 313.244 403.394 312.538C400.601 311.034 397.897 310.14 395.301 309.513C393.49 309.081 391.724 308.759 390.119 308.467C389.958 308.437 389.79 308.407 389.632 308.378C389.203 308.141 388.8 307.909 388.464 307.697C387.333 307.172 386.217 306.796 385.367 306.596C384.271 306.34 383.499 306.482 382.877 306.607C382.449 306.694 382.087 306.778 381.739 306.741C381.553 306.722 381.303 306.685 381.009 306.641Z" fill="white"/>
<path d="M462.651 405.524L437.345 479.211H421.55L453.667 393.722H463.766L462.651 405.524ZM483.788 479.211L458.423 405.524L457.249 393.722H467.407L499.641 479.211H483.788ZM482.555 447.446V459.424H436.229V447.446H482.555Z" fill="black"/>
<path d="M372.176 479.211H353.916L354.033 467.292H372.176C377.421 467.292 381.805 466.157 385.328 463.887C388.851 461.577 391.513 458.289 393.313 454.023C395.114 449.756 396.014 444.667 396.014 438.757V434.118C396.014 429.538 395.505 425.487 394.488 421.964C393.47 418.441 391.963 415.466 389.967 413.039C387.97 410.613 385.524 408.792 382.627 407.579C379.77 406.326 376.462 405.7 372.704 405.7H353.563V393.722H372.704C378.38 393.722 383.567 394.681 388.264 396.599C393 398.478 397.071 401.218 400.477 404.819C403.921 408.381 406.563 412.648 408.403 417.619C410.282 422.551 411.221 428.09 411.221 434.236V438.757C411.221 444.863 410.282 450.402 408.403 455.373C406.563 460.344 403.921 464.611 400.477 468.173C397.032 471.735 392.922 474.475 388.146 476.393C383.371 478.272 378.047 479.211 372.176 479.211ZM362.253 393.722V479.211H347.222V393.722H362.253Z" fill="black"/>
<path d="M327.909 434.177V438.815C327.909 445.274 327.068 451.067 325.385 456.195C323.702 461.323 321.294 465.687 318.163 469.288C315.031 472.89 311.293 475.649 306.948 477.567C302.603 479.446 297.769 480.386 292.446 480.386C287.2 480.386 282.405 479.446 278.06 477.567C273.715 475.649 269.938 472.89 266.728 469.288C263.558 465.687 261.092 461.323 259.33 456.195C257.608 451.067 256.747 445.274 256.747 438.815V434.177C256.747 427.718 257.608 421.925 259.33 416.797C261.053 411.669 263.499 407.305 266.67 403.704C269.84 400.063 273.598 397.304 277.943 395.425C282.288 393.507 287.083 392.548 292.328 392.548C297.652 392.548 302.486 393.507 306.831 395.425C311.176 397.304 314.914 400.063 318.045 403.704C321.216 407.305 323.643 411.669 325.326 416.797C327.048 421.925 327.909 427.718 327.909 434.177ZM312.82 438.815V434.059C312.82 429.323 312.35 425.135 311.411 421.494C310.51 417.854 309.179 414.801 307.418 412.335C305.656 409.869 303.504 408.01 300.959 406.757C298.415 405.465 295.538 404.819 292.328 404.819C289.118 404.819 286.241 405.465 283.697 406.757C281.192 408.01 279.059 409.869 277.297 412.335C275.575 414.801 274.244 417.854 273.304 421.494C272.365 425.135 271.895 429.323 271.895 434.059V438.815C271.895 443.552 272.365 447.74 273.304 451.38C274.244 455.021 275.594 458.093 277.356 460.599C279.156 463.104 281.309 465.002 283.814 466.294C286.359 467.547 289.236 468.173 292.446 468.173C295.694 468.173 298.572 467.547 301.077 466.294C303.621 465.002 305.754 463.104 307.477 460.599C309.238 458.093 310.569 455.021 311.469 451.38C312.37 447.74 312.82 443.552 312.82 438.815Z" fill="black"/>
<path d="M225.985 429.362V441.223H180.657V429.362H225.985ZM184.473 393.722V479.211H169.442V393.722H184.473ZM237.434 393.722V479.211H222.403V393.722H237.434Z" fill="black"/>
<path d="M150.13 434.177V438.815C150.13 445.274 149.288 451.067 147.605 456.195C145.922 461.323 143.514 465.687 140.383 469.288C137.251 472.89 133.513 475.649 129.168 477.567C124.823 479.446 119.989 480.386 114.666 480.386C109.421 480.386 104.625 479.446 100.281 477.567C95.9356 475.649 92.1583 472.89 88.9485 469.288C85.7779 465.687 83.3119 461.323 81.5504 456.195C79.8281 451.067 78.967 445.274 78.967 438.815V434.177C78.967 427.718 79.8281 421.925 81.5504 416.797C83.2728 411.669 85.7192 407.305 88.8898 403.704C92.0604 400.063 95.8182 397.304 100.163 395.425C104.508 393.507 109.303 392.548 114.548 392.548C119.872 392.548 124.706 393.507 129.051 395.425C133.396 397.304 137.134 400.063 140.265 403.704C143.436 407.305 145.863 411.669 147.546 416.797C149.268 421.925 150.13 427.718 150.13 434.177ZM135.04 438.815V434.059C135.04 429.323 134.57 425.135 133.631 421.494C132.73 417.854 131.4 414.801 129.638 412.335C127.877 409.869 125.724 408.01 123.179 406.757C120.635 405.465 117.758 404.819 114.548 404.819C111.339 404.819 108.462 405.465 105.917 406.757C103.412 408.01 101.279 409.869 99.5173 412.335C97.7949 414.801 96.4641 417.854 95.5246 421.494C94.5852 425.135 94.1155 429.323 94.1155 434.059V438.815C94.1155 443.552 94.5852 447.74 95.5246 451.38C96.4641 455.021 97.8145 458.093 99.576 460.599C101.377 463.104 103.529 465.002 106.035 466.294C108.579 467.547 111.456 468.173 114.666 468.173C117.915 468.173 120.792 467.547 123.297 466.294C125.841 465.002 127.974 463.104 129.697 460.599C131.458 458.093 132.789 455.021 133.689 451.38C134.59 447.74 135.04 443.552 135.04 438.815Z" fill="black"/>
<path d="M32.5281 447.505H10.3338V435.586H32.5281C36.3642 435.586 39.4565 434.979 41.8051 433.766C44.1537 432.513 45.876 430.791 46.972 428.599C48.068 426.407 48.6161 423.902 48.6161 421.083C48.6161 418.383 48.068 415.858 46.972 413.509C45.876 411.161 44.1537 409.282 41.8051 407.873C39.4565 406.424 36.3642 405.7 32.5281 405.7H15.0311V479.211H0V393.722H32.5281C39.1434 393.722 44.78 394.897 49.4381 397.245C54.0961 399.594 57.6582 402.823 60.1242 406.933C62.5902 411.043 63.8233 415.721 63.8233 420.966C63.8233 426.485 62.5902 431.222 60.1242 435.175C57.6582 439.129 54.0961 442.182 49.4381 444.335C44.78 446.448 39.1434 447.505 32.5281 447.505Z" fill="black"/>
</svg>
