<svg width="219" height="236" viewBox="0 0 219 236" fill="none" xmlns="http://www.w3.org/2000/svg">
<path d="M36.5743 230.723H34.6534V233.236H33.9654V226.394H36.5743C37.8932 226.394 38.7246 227.254 38.7246 228.544C38.7246 229.786 37.8836 230.723 36.5743 230.723ZM36.4788 227.015H34.6534V230.102H36.4406C37.4345 230.102 38.0079 229.471 38.0079 228.534C38.0079 227.588 37.4249 227.015 36.4788 227.015ZM42.3395 226.394V233.236H41.6514V226.394H42.3395ZM50.1387 233.236H45.3794V232.606L49.3168 227.024H45.4081V226.394H50.1578V227.005L46.2013 232.606H50.1387V233.236ZM57.4981 233.236H52.7389V232.606L56.6762 227.024H52.7675V226.394H57.5172V227.005L53.5607 232.606H57.4981V233.236ZM60.5379 233.236H59.8403L62.3537 226.394H63.2042L65.7463 233.236H65.0296L64.3606 231.42H61.2069L60.5379 233.236ZM62.6882 227.359L61.4171 230.818H64.1408L62.8602 227.359C62.8315 227.263 62.7837 227.149 62.7742 227.082C62.7646 227.139 62.7264 227.263 62.6882 227.359Z" fill="#E17C2F"/>
<path d="M79.987 233.236V226.394H82.4909C83.8097 226.394 84.622 227.063 84.622 228.162C84.622 228.964 84.2684 229.509 83.5612 229.786C84.3544 230.044 84.7558 230.599 84.7558 231.44C84.7558 232.539 83.9339 233.236 82.6342 233.236H79.987ZM82.4813 227.005H80.6751V229.509H82.5673C83.4274 229.509 83.9148 229.031 83.9148 228.219C83.9148 227.454 83.3988 227.005 82.4813 227.005ZM82.6342 230.111H80.6751V232.615H82.6342C83.5325 232.615 84.0582 232.147 84.0582 231.354C84.0582 230.58 83.523 230.111 82.6342 230.111ZM87.7653 230.857V226.394H88.4534V230.828C88.4534 232.032 89.1128 232.682 90.3074 232.682C91.4733 232.682 92.1327 232.013 92.1327 230.828V226.394H92.8208V230.857C92.8208 232.405 91.8651 233.351 90.3074 233.351C88.721 233.351 87.7653 232.414 87.7653 230.857ZM96.9432 233.236H96.2551V226.394H98.8067C100.192 226.394 101.033 227.158 101.033 228.372C101.033 229.356 100.517 230.044 99.6382 230.283L101.1 233.236H100.336L98.9405 230.398H96.9432V233.236ZM96.9432 227.015V229.777H98.8258C99.772 229.777 100.326 229.261 100.326 228.391C100.326 227.502 99.7433 227.015 98.8067 227.015H96.9432ZM107.013 226.929C105.437 226.929 104.443 228.095 104.443 229.844C104.443 231.621 105.494 232.701 107.033 232.701C108.179 232.701 109.298 232.147 109.298 230.503V230.149H106.822V229.538H109.947V233.246H109.403L109.336 232.156C108.973 232.835 108.113 233.351 107.004 233.351C105.064 233.351 103.726 231.956 103.726 229.844C103.726 227.751 105.064 226.279 107.023 226.279C108.466 226.279 109.584 227.101 109.852 228.343H109.106C108.82 227.407 108.017 226.929 107.013 226.929ZM117.519 233.236H113.419V226.394H117.509V227.024H114.107V229.49H117.194V230.111H114.107V232.606H117.519V233.236ZM121.42 233.236H120.732V226.394H123.284C124.669 226.394 125.51 227.158 125.51 228.372C125.51 229.356 124.994 230.044 124.115 230.283L125.577 233.236H124.813L123.417 230.398H121.42V233.236ZM121.42 227.015V229.777H123.303C124.249 229.777 124.803 229.261 124.803 228.391C124.803 227.502 124.22 227.015 123.284 227.015H121.42Z" fill="#E17C2F"/>
<path d="M140.515 226.394V232.606H143.659V233.236H139.827V226.394H140.515ZM146.691 233.236H145.994L148.507 226.394H149.358L151.9 233.236H151.183L150.514 231.42H147.36L146.691 233.236ZM148.842 227.359L147.571 230.818H150.294L149.014 227.359C148.985 227.263 148.937 227.149 148.928 227.082C148.918 227.139 148.88 227.263 148.842 227.359ZM155.355 233.236H154.667V226.394H155.364L159.13 232.089V226.394H159.808V233.236H159.13L155.355 227.54V233.236ZM166.163 226.929C164.586 226.929 163.592 228.095 163.592 229.844C163.592 231.621 164.643 232.701 166.182 232.701C167.328 232.701 168.447 232.147 168.447 230.503V230.149H165.971V229.538H169.096V233.246H168.552L168.485 232.156C168.122 232.835 167.262 233.351 166.153 233.351C164.213 233.351 162.875 231.956 162.875 229.844C162.875 227.751 164.213 226.279 166.172 226.279C167.615 226.279 168.733 227.101 169.001 228.343H168.255C167.969 227.407 167.166 226.929 166.163 226.929ZM178.376 229.815C178.376 231.889 177.029 233.351 175.117 233.351C173.196 233.351 171.858 231.889 171.858 229.815C171.858 227.741 173.206 226.269 175.117 226.269C177.038 226.269 178.376 227.732 178.376 229.815ZM177.669 229.815C177.669 228.104 176.627 226.938 175.117 226.938C173.607 226.938 172.575 228.104 172.575 229.815C172.575 231.526 173.607 232.692 175.117 232.692C176.627 232.692 177.669 231.516 177.669 229.815ZM182.863 225.878L182.137 224.712H182.73L183.284 225.553L183.829 224.712H184.421L183.695 225.878H182.863ZM181.029 228.171C181.029 227.024 181.946 226.269 183.322 226.269C184.555 226.269 185.367 226.958 185.472 228.104H184.775C184.698 227.33 184.173 226.891 183.313 226.891C182.347 226.891 181.717 227.388 181.717 228.162C181.717 228.764 182.07 229.146 182.787 229.328L183.962 229.614C185.033 229.872 185.587 230.484 185.587 231.411C185.587 232.596 184.67 233.351 183.255 233.351C181.927 233.351 181.029 232.653 180.943 231.535H181.65C181.688 232.252 182.319 232.72 183.255 232.72C184.259 232.72 184.899 232.233 184.899 231.449C184.899 230.838 184.555 230.436 183.819 230.264L182.663 229.977C181.592 229.719 181.029 229.108 181.029 228.171Z" fill="#E17C2F"/>
<path d="M86.5776 37.7247C86.7473 38.1675 86.9044 38.6799 87.0538 39.2385C87.6958 41.7303 88.1701 45.1633 88.3892 48.0836C88.3774 48.1859 88.4169 48.5523 88.4669 48.9492C88.4737 49.0016 88.4814 49.06 88.4881 49.1116C88.579 49.8273 88.6924 50.5282 88.8215 51.3397C89.067 52.8827 89.3763 54.8561 89.7348 58.3561C89.825 59.2428 89.9199 60.2372 90.0184 61.3512C90.286 62.9162 90.5468 64.4854 90.7992 66.0535C92.3018 75.372 93.6356 84.7315 94.9466 94.0176C95.7335 99.3494 96.3086 103.961 97.6432 109.372C97.9342 110.712 98.1945 112.365 98.3982 113.722C98.5484 114.727 98.6909 115.719 98.8318 116.708C98.8736 116.923 98.9154 117.139 98.9581 117.359C99.4857 120.076 100.085 123.215 100.555 125.932C100.811 127.411 101.044 128.746 101.212 129.828C101.592 132.289 101.954 133.954 102.392 135.416C102.209 135.132 101.911 134.075 100.088 133.102C99.215 132.667 98.2466 132.565 97.6572 132.61C97.0462 132.652 96.7111 132.768 96.4912 132.847C96.0667 133.014 96.0327 133.084 96.0285 133.102C96.0354 133.12 96.1166 133.092 96.2151 133.047C96.3256 132.987 96.4331 132.93 96.5379 132.873C100.295 130.606 103.083 127.83 106.879 124.284C110.639 120.834 114.269 116.256 117.823 111.816C119.781 109.337 121.818 106.927 123.849 104.591C126.687 101.331 129.424 98.2052 131.97 94.9174C132.898 93.7236 133.809 92.5099 134.703 91.2798C136.115 89.3385 137.532 87.4084 138.963 85.4837C140.251 83.5598 141.464 81.7245 142.6 80.0275C144.191 77.6459 145.638 75.5383 146.777 73.9375C146.843 73.846 146.906 73.7568 146.967 73.6697C150.026 69.4551 153.682 65.4081 156.404 62.2883C156.857 61.7718 157.287 61.2804 157.679 60.8295C158.212 60.13 158.743 59.4297 159.259 58.7393C160.765 56.728 162.294 54.7335 163.831 52.7616C164.016 52.6171 164.2 52.4783 164.392 52.3324C165.794 51.2728 167.223 49.8338 168.761 48.0622C169.711 46.9567 170.674 45.5947 171.615 43.8745C172.571 42.1548 173.068 40.7568 174.499 37.4742C174.596 37.2909 174.715 37.0228 174.83 36.721C175.378 35.2219 175.809 34.2463 176.168 33.5268C176.272 33.3096 176.367 33.1022 176.449 32.8896C176.728 32.1598 176.641 31.3213 176.478 30.3913C176.313 29.4835 176.077 28.3872 175.968 27.5125C175.935 27.2518 175.915 27.0262 175.916 26.8241C176.207 25.806 174.003 24.232 172.479 23.4301C170.872 22.5585 169.557 22.0782 168.433 21.6744C168.288 21.6261 168.144 21.5783 168.006 21.5347C167.39 21.3377 166.845 21.1793 166.317 20.9781C164.62 20.314 162.355 19.0799 160.521 18.1203C159.415 17.5235 157.248 16.9719 155.141 16.6799C154.494 16.5863 153.842 16.5032 153.244 16.4384C152.253 16.33 150.941 16.0287 149.398 15.6831C147.797 15.3243 145.941 14.9161 143.922 14.6186C138.821 13.8695 136.11 13.4868 133.928 13.1753C133.314 13.0887 132.724 13.0043 132.153 12.9261C131.573 12.8458 130.959 12.7571 130.316 12.6628C128.935 12.461 127.431 12.2439 125.944 12.0686C123.556 11.7728 121.405 11.691 119.123 11.5981C119.019 11.6006 118.881 11.6026 118.737 11.6067C115.293 11.3013 110.905 11.2532 106.846 11.1353L107.607 11.0774C106.224 11.2217 104.851 11.3854 103.491 11.5724C100.786 11.9417 98.1413 11.9197 96.1149 11.4714C95.7449 11.3892 95.4019 11.2939 95.0985 11.1834C94.9428 11.1294 94.8039 11.0695 94.6799 11.0045C94.5759 10.9302 94.4036 10.8923 94.5085 10.7296C94.4875 10.7408 94.4218 10.7683 94.4004 10.7786C93.126 10.4943 92.6301 9.81558 92.245 9.07201C91.8759 8.31703 92.1321 7.32795 92.5203 6.38616L92.4473 6.41923C93.118 5.67462 93.5044 5.17849 94.2115 4.6032C96.0417 3.08447 98.7474 1.88493 101.67 1.26394C103.139 0.951435 104.611 0.666013 106.091 0.403548C106.22 0.390902 106.602 0.35055 106.732 0.354825C111.167 0.190775 115.085 -0.155654 120.312 0.0792176C120.321 0.0799973 120.331 0.0807843 120.34 0.0815786C124.09 0.273447 128.644 0.838975 132.52 1.57702C135.594 2.14025 138.658 2.74527 141.707 3.38874C146.551 4.41418 151.377 5.4964 156.233 6.70592C156.649 6.80979 157.072 6.91665 157.484 7.02225C157.573 7.04482 157.661 7.06746 157.749 7.09014C162.129 7.81273 166.61 9.09784 169.686 10.4998C171.416 11.272 172.747 12.1145 173.775 12.8449C174.201 13.1524 174.585 13.4395 174.962 13.7181C175.778 14.3217 176.513 14.8557 177.358 15.3463C177.811 15.6104 178.443 15.9639 179.276 16.4804C180.187 17.0683 181.402 17.7815 182.906 19.3514C184.446 20.8788 185.766 23.699 186.048 25.8365C186.572 29.4638 186.186 32.1651 185.61 34.9774C185.129 37.0018 184.589 39.0544 183.106 41.7529C183.002 41.8032 182.658 42.4806 182.367 43.0392C180.636 46.5629 178.294 49.856 177.259 51.4689C176.797 52.2169 176.269 52.9632 175.691 53.6893C174.131 55.6285 172.489 57.3885 170.977 59.0652C169.045 61.1977 167.386 63.0823 166.676 64.3359C166.642 64.396 166.607 64.4556 166.572 64.5146C165.712 65.9638 164.718 67.0305 163.274 68.5751C162.231 69.6902 160.95 71.0534 159.321 72.982C157.443 75.207 156.019 76.6944 154.849 77.9467C154.531 78.2883 154.234 78.6092 153.959 78.9162C152.674 80.3751 151.604 81.6161 150.418 83.5286C148.786 86.1528 147.015 88.8001 145.413 90.7434C144.684 91.6263 143.905 92.6832 143.104 93.7829C142.534 94.5644 141.952 95.3681 141.358 96.1582C140.826 96.8654 140.295 97.5343 139.746 98.1667C138.776 99.2834 137.824 100.088 136.979 100.79C136.716 101.008 136.462 101.218 136.22 101.424C135.491 102.338 134.755 103.244 134.017 104.143C133.929 104.313 133.835 104.496 133.739 104.684C133.256 105.63 132.655 106.788 131.755 108.068C130.331 110.093 128.854 111.615 127.336 113.249C126.344 114.317 125.342 115.423 124.33 116.749C124.124 117.02 123.925 117.287 123.719 117.568C122.859 118.748 121.929 120.129 120.991 121.494C119.595 123.526 118.158 125.53 116.948 126.788C116.495 127.26 116.002 127.578 115.509 127.889C115.506 127.89 115.504 127.891 115.501 127.892C115.468 127.914 115.434 127.935 115.4 127.956C114.646 128.843 113.851 129.731 113.017 130.591C111.056 132.612 109.12 134.903 106.718 137.13C106.454 137.414 106.182 137.698 105.911 137.975C104.579 139.335 103.206 140.549 102.391 141.434C102.307 141.526 102.206 141.627 102.089 141.737C101.733 142.02 101.452 142.356 100.212 142.928C99.5783 143.133 98.407 143.843 95.9252 143.123C94.7478 142.741 93.7583 141.915 93.2325 141.26C92.6897 140.596 92.4365 140.07 92.2455 139.65C91.5706 138.319 90.8757 136.585 90.3231 134.894C89.6018 132.705 89.0362 130.535 88.5377 128.791C88.4802 128.589 88.4345 128.392 88.3962 128.188C88.2466 127.391 88.2382 126.595 88.2322 125.789C88.2249 124.851 88.2194 123.89 87.9985 122.881C87.8878 122.375 87.7226 121.838 87.5462 121.265C87.3908 120.76 87.2265 120.227 87.0837 119.665C86.9509 119.144 86.8303 117.948 86.6702 116.435C86.6519 116.262 86.6324 116.081 86.6136 115.904C86.5281 115.116 86.4299 114.255 86.3113 113.425C86.2557 113.202 86.2002 112.988 86.1456 112.79C86.0882 112.577 86.0478 112.467 85.9383 112.036C85.3503 110.237 84.4792 107.056 83.9494 104.689C83.6789 104.077 83.3892 103.571 83.0679 103.178C82.8362 102.89 82.5856 102.681 82.3245 102.438C81.972 102.123 81.6059 101.783 81.2773 101.306C81.0193 100.926 80.859 100.452 80.8769 100.113C80.885 99.9536 80.9304 99.8211 80.9718 99.7031C81.02 99.573 81.0628 99.456 81.038 99.3254C81.02 99.2312 80.9537 99.1409 80.8728 99.0283C80.7433 98.8457 80.5773 98.6159 80.5071 98.2359C80.4036 97.674 80.3107 97.1182 80.2142 96.5038C80.0673 95.5654 79.9274 94.5805 79.7894 93.6026C79.5429 91.8523 79.304 90.1359 79.0451 88.783C78.755 87.2681 78.5832 85.0648 78.4137 82.8677C78.295 81.3325 78.176 79.7955 78.0179 78.487C77.8629 77.2043 77.548 75.8927 77.243 74.6255C76.8766 73.1031 76.5237 71.6372 76.4806 70.3507C76.4723 70.092 76.6189 69.744 76.802 69.3056C76.9317 68.9949 77.081 68.6454 77.2055 68.2422C76.9473 66.6385 76.6968 65.0318 76.4537 63.4318C76.4178 63.38 76.3817 63.3298 76.344 63.2735C76.3432 63.2727 76.3424 63.2719 76.3416 63.271C75.8746 62.5909 75.3151 61.7895 74.925 60.7631C74.6093 59.929 74.4049 58.9578 74.4497 57.8051C74.473 57.1352 74.6486 56.7047 74.8042 56.3025C74.9578 55.9127 75.0956 55.5665 75.0567 55.0917C75.0135 54.5588 74.7768 53.955 74.52 53.311C74.152 52.313 73.7671 51.6457 73.7366 49.8917C73.7366 49.8274 73.7371 49.7618 73.7381 49.6948C73.7418 49.6624 73.7454 49.6288 73.7489 49.5943C73.822 48.8934 73.8981 47.7789 74.1747 46.5999C73.9864 44.898 73.7724 43.1536 73.5626 41.3876C73.3472 39.6136 73.1878 37.8507 73.0471 36.1654C72.9606 35.1362 72.8793 34.1383 72.7859 33.1817C72.3871 29.3915 71.1809 23.3211 71.4678 18.4689C71.4688 18.4138 71.47 18.3584 71.4713 18.3029C71.5487 15.5211 72.098 12.8537 73.0263 10.8764C73.9726 8.86203 75.2247 7.73465 76.5171 7.7376C77.8098 7.7399 79.0564 8.83588 80.0541 10.7856C81.0318 12.701 81.685 15.285 81.9185 18.0081C81.9228 18.0575 81.927 18.1066 81.9311 18.1555C82.2123 22.6599 83.2085 25.4556 84.4072 30.9181C84.4524 31.0903 84.4969 31.2655 84.5406 31.4453C84.5615 31.5292 84.5821 31.6131 84.6023 31.6967C85.0541 33.5696 85.6051 35.1641 86.181 36.6851C86.3129 37.0347 86.4457 37.3807 86.5776 37.7247Z" fill="#E17C2F"/>
<path d="M119.554 27.2363C108.354 25.2363 88.2209 24.4029 79.5542 24.2363C79.5542 29.4029 80.6542 39.7363 85.0542 39.7363C90.5542 39.7363 103.554 39.7363 113.054 41.2363C120.654 42.4363 136.554 47.0696 143.554 49.2363C148.054 50.4029 156.854 51.0363 156.054 44.2363C155.054 35.7363 133.554 29.7363 119.554 27.2363Z" fill="#E17C2F"/>
<circle cx="118.554" cy="56.7363" r="8" fill="#E17C2F" stroke="#E17C2F"/>
<circle cx="107.554" cy="80.7363" r="10" fill="#E17C2F" stroke="#E17C2F"/>
<circle cx="132.054" cy="75.2363" r="6.5" fill="#E17C2F" stroke="#E17C2F"/>
<circle cx="106.554" cy="106.736" r="5" fill="#E17C2F" stroke="#E17C2F"/>
<circle cx="99.0542" cy="52.2363" r="3.5" fill="#E17C2F" stroke="#E17C2F"/>
<circle cx="142.554" cy="61.2363" r="3" fill="#E17C2F" stroke="#E17C2F"/>
<path d="M70.7159 143.895C70.3819 144.457 69.2599 144.864 68.6228 145.018C68.6113 145.021 68.5998 145.024 68.5883 145.027C68.4387 145.066 68.2983 145.112 68.1348 145.162C67.7453 145.275 67.1982 145.455 66.0336 145.458C65.7058 145.521 65.3773 145.567 65.0479 145.597C65.0185 145.599 64.989 145.602 64.9595 145.604C62.1453 145.776 59.9942 145.683 56.7085 144.966C56.573 144.925 56.4372 144.883 56.3002 144.839C56.2609 144.832 56.221 144.825 56.1803 144.818C55.3997 144.682 54.3675 144.392 53.789 144.013C53.0541 143.539 52.6176 143.123 52.2845 142.777C52.0379 142.585 51.8009 142.385 51.5743 142.179C50.2228 140.884 49.213 139.744 48.1334 139.071C47.9938 138.987 47.8526 138.904 47.7125 138.821C47.1536 138.494 46.5924 138.178 46.0251 137.88C45.503 137.606 44.9772 137.342 44.4533 137.095C44.1224 137.002 43.8025 136.931 43.5171 136.875C43.3581 136.843 43.2087 136.816 43.0791 136.795C42.9686 136.802 42.8408 136.798 42.7227 136.78C42.2513 136.702 41.56 136.47 41.0187 136.327C40.9296 136.304 40.8466 136.282 40.7671 136.263C40.32 136.264 39.8613 136.284 39.4021 136.319C39.3722 136.292 39.3419 136.265 39.311 136.236C38.924 135.885 38.4243 135.884 37.6448 135.921C37.305 135.938 36.9111 135.963 36.4464 135.976C36.147 135.985 35.981 135.866 35.8438 135.768C35.8383 135.764 35.8328 135.76 35.8273 135.757C35.7881 135.733 35.7511 135.711 35.7145 135.693C35.5703 135.623 35.434 135.727 35.2724 135.849C35.0628 136.007 34.8055 136.195 34.45 136.064C33.3308 135.64 32.9384 135.989 32.6616 136.266C32.5813 136.347 32.5121 136.42 32.4407 136.465C32.2076 136.611 31.8832 136.546 31.6044 136.449C31.5559 136.432 31.5016 136.429 31.4424 136.439C31.12 136.504 30.734 136.701 30.4421 136.895C30.3011 136.989 30.095 137.035 29.8582 137.088C29.6129 137.143 29.3343 137.204 29.0585 137.336C28.3631 137.668 28.026 137.843 27.7553 137.984C27.6786 138.025 27.6082 138.062 27.5388 138.101C27.3196 138.222 27.0511 138.353 26.8007 138.489C26.5 138.652 26.2296 138.825 26.0678 138.985C25.7698 139.073 25.5128 139.163 25.3238 139.237C24.9504 139.458 24.5737 139.667 24.1783 139.871C23.7267 140.104 23.125 140.12 22.5186 139.877C21.9144 139.638 21.3576 139.126 21.2355 138.475C21.1169 137.825 20.9738 137.21 20.9363 136.684C20.9045 136.156 21.0313 135.738 21.314 135.491C21.5611 135.275 21.8107 135.045 22.053 134.811C22.6104 134.33 23.1794 133.966 23.7358 133.663C24.9345 133.017 26.0941 132.634 27.2081 132.365C27.9856 132.18 28.7429 132.041 29.4318 131.916C29.501 131.903 29.573 131.89 29.6407 131.878C29.8248 131.776 29.9977 131.676 30.1418 131.586C30.6273 131.36 31.1062 131.199 31.4712 131.113C31.9413 131.003 32.2722 131.065 32.539 131.118C32.7226 131.156 32.8778 131.191 33.0272 131.176C33.1072 131.167 33.2148 131.151 33.3412 131.132C33.865 131.056 34.63 130.936 35.3269 131.021C35.3289 131.021 35.3309 131.021 35.3329 131.022C35.7178 131.052 36.1655 131.151 36.5873 131.255C37.195 131.403 37.7494 131.561 38.0263 131.501C38.5137 131.394 39.0806 131.474 39.5778 131.56C40.0528 131.641 40.4669 131.725 40.7156 131.633C41.0123 131.523 41.2579 131.598 41.6191 131.718C41.87 131.802 42.1755 131.907 42.6078 132.009C43.1095 132.129 43.4578 132.307 43.7527 132.47C44.1099 132.67 44.3817 132.836 44.8329 132.956C44.8938 132.97 44.9627 132.983 45.0315 132.991C45.5645 133.055 46.0585 133.185 46.3851 133.412C46.5336 133.515 46.7174 133.603 46.9075 133.695C47.1596 133.816 47.4233 133.944 47.631 134.122C47.8022 134.268 47.9029 134.465 47.9918 134.64C48.0196 134.694 48.0461 134.747 48.0733 134.794C48.2281 134.874 48.383 134.953 48.5385 135.031C48.573 135.026 48.6098 135.02 48.648 135.013C48.8402 134.981 49.0761 134.942 49.3178 134.989C49.631 135.048 49.8584 135.204 50.0774 135.382C50.1395 135.429 50.201 135.478 50.2611 135.527C50.52 135.739 50.7661 135.962 51.0816 136.145C51.2969 136.27 51.5546 136.387 51.8044 136.505C52.1756 136.681 52.5291 136.86 52.7071 137.062C52.7741 137.138 52.7902 137.253 52.8055 137.367C52.8055 137.368 52.8055 137.369 52.8055 137.369C52.8065 137.377 52.8076 137.385 52.8087 137.392C53.341 137.739 53.8619 138.086 54.3326 138.358C54.3694 138.367 54.4056 138.376 54.4407 138.384C54.4525 138.386 54.4641 138.388 54.4758 138.39C54.6935 138.431 54.9018 138.456 55.0737 138.406C55.2604 138.352 55.5675 138.439 55.8966 138.494C56.1118 138.531 56.3377 138.557 56.5352 138.542C56.6501 138.533 56.7183 138.643 56.7966 138.757C56.869 138.863 56.9499 138.972 57.0707 138.983C57.131 138.989 57.2026 138.972 57.2792 138.953C57.3464 138.937 57.4178 138.919 57.4894 138.914C57.5546 138.909 57.6791 138.981 57.85 139.07C57.851 139.072 57.8521 139.073 57.8532 139.075C57.8881 139.118 57.9868 139.173 58.1082 139.22C58.4511 139.207 58.868 139.185 59.2779 139.157C59.3675 139.088 59.4457 138.997 59.5091 138.878C59.5546 138.793 59.5953 138.691 59.6354 138.586C59.6899 138.443 59.7461 138.296 59.8214 138.179C59.8802 138.088 59.9456 138.053 59.9894 138.092C60.0096 138.111 60.0248 138.145 60.0387 138.176C60.0545 138.212 60.0689 138.243 60.0867 138.243C60.0997 138.242 60.1137 138.218 60.1309 138.188C60.1584 138.14 60.194 138.079 60.247 138.078C60.4428 138.073 60.6676 138.095 60.8879 138.115C61.1335 138.138 61.3746 138.157 61.5663 138.136C61.781 138.113 62.0883 138.2 62.3978 138.283C62.6134 138.341 62.8299 138.397 63.0135 138.415C63.194 138.433 63.3767 138.372 63.5519 138.312C63.7612 138.241 63.9602 138.169 64.1345 138.237C64.1704 138.251 64.2209 138.347 64.2843 138.468C64.3115 138.519 64.3411 138.575 64.3728 138.631C64.3894 138.668 64.4069 138.705 64.4253 138.74C64.5887 138.726 64.7508 138.709 64.9127 138.689C64.916 138.675 64.9195 138.66 64.9228 138.645C64.9229 138.645 64.9229 138.645 64.9229 138.644C65.0056 138.306 65.0625 137.853 65.3504 138.045C65.4256 138.093 65.4957 138.2 65.5606 138.295C65.6244 138.389 65.6841 138.472 65.7357 138.477C65.794 138.483 65.836 138.4 65.8774 138.309C65.9368 138.182 65.994 138.04 66.1335 138.098C66.1431 138.102 66.1534 138.106 66.1641 138.11C66.2657 138.15 66.4176 138.206 66.6249 138.356C66.9905 138.254 67.3675 138.126 67.7667 137.965C68.2781 137.76 68.7635 137.523 69.4986 137.153C69.5192 137.143 69.5741 137.101 69.5952 137.092C69.8411 136.986 70.0581 136.906 70.2469 136.838C70.3614 136.797 70.4742 136.782 70.5767 136.795C70.7794 136.841 71.0584 136.939 71.4244 137.074C71.9465 137.279 72.4788 137.649 72.8875 138.15C73.2945 138.651 73.5693 139.235 73.6178 139.82C73.6586 140.214 73.5159 140.646 73.2227 141.001C73.1036 141.153 72.9869 141.274 72.8702 141.367C72.6792 141.519 72.5192 141.651 72.3997 141.764L72.5143 141.692C72.2896 141.935 71.8986 142.319 71.4879 142.683C71.4609 142.717 71.4329 142.751 71.404 142.785C71.1899 143.036 71.0279 143.355 70.8456 143.675C70.8035 143.749 70.7602 143.822 70.7159 143.895Z" fill="#E17C2F"/>
<path d="M127.079 144.338C127.413 144.9 128.535 145.308 129.172 145.461C129.184 145.464 129.195 145.468 129.207 145.471C129.356 145.509 129.497 145.555 129.66 145.605C130.05 145.718 130.597 145.899 131.761 145.902C132.089 145.964 132.418 146.01 132.747 146.04C132.776 146.043 132.806 146.045 132.835 146.048C135.65 146.22 137.801 146.126 141.086 145.409C141.222 145.369 141.358 145.327 141.495 145.283C141.534 145.276 141.574 145.269 141.615 145.261C142.395 145.126 143.427 144.836 144.006 144.456C144.741 143.983 145.177 143.566 145.51 143.22C145.757 143.029 145.994 142.829 146.221 142.623C147.572 141.328 148.582 140.188 149.662 139.514C149.801 139.431 149.942 139.347 150.082 139.265C150.641 138.937 151.203 138.622 151.77 138.323C152.292 138.049 152.818 137.785 153.342 137.538C153.673 137.445 153.992 137.374 154.278 137.318C154.437 137.287 154.586 137.26 154.716 137.238C154.826 137.245 154.954 137.242 155.072 137.223C155.544 137.145 156.235 136.913 156.776 136.771C156.865 136.747 156.948 136.725 157.028 136.707C157.475 136.707 157.934 136.728 158.393 136.762C158.423 136.735 158.453 136.708 158.484 136.68C158.871 136.329 159.371 136.327 160.15 136.365C160.49 136.381 160.884 136.406 161.349 136.42C161.648 136.429 161.814 136.309 161.951 136.212C161.957 136.208 161.962 136.204 161.968 136.2C162.007 136.176 162.044 136.154 162.08 136.137C162.225 136.066 162.361 136.171 162.522 136.293C162.732 136.451 162.989 136.639 163.345 136.508C164.464 136.084 164.857 136.432 165.133 136.709C165.214 136.79 165.283 136.864 165.354 136.909C165.587 137.054 165.912 136.99 166.191 136.892C166.239 136.875 166.293 136.872 166.352 136.882C166.675 136.947 167.061 137.145 167.353 137.338C167.494 137.432 167.7 137.479 167.937 137.531C168.182 137.586 168.461 137.647 168.736 137.779C169.432 138.112 169.769 138.286 170.04 138.428C170.116 138.468 170.187 138.506 170.256 138.544C170.475 138.666 170.744 138.796 170.994 138.933C171.295 139.096 171.565 139.268 171.727 139.429C172.025 139.516 172.282 139.606 172.471 139.68C172.845 139.901 173.221 140.11 173.617 140.315C174.068 140.548 174.67 140.563 175.276 140.32C175.881 140.082 176.437 139.57 176.559 138.918C176.678 138.268 176.821 137.653 176.859 137.127C176.89 136.6 176.764 136.182 176.481 135.934C176.234 135.718 175.984 135.488 175.742 135.255C175.185 134.773 174.615 134.409 174.059 134.106C172.86 133.46 171.701 133.077 170.587 132.809C169.809 132.623 169.052 132.484 168.363 132.359C168.294 132.347 168.222 132.333 168.154 132.321C167.97 132.219 167.797 132.12 167.653 132.029C167.168 131.804 166.689 131.642 166.324 131.557C165.854 131.447 165.523 131.508 165.256 131.562C165.072 131.599 164.917 131.635 164.768 131.619C164.688 131.61 164.58 131.594 164.454 131.576C163.93 131.499 163.165 131.38 162.468 131.464C162.466 131.464 162.464 131.465 162.462 131.465C162.077 131.496 161.629 131.595 161.208 131.698C160.6 131.847 160.046 132.005 159.769 131.944C159.281 131.837 158.714 131.918 158.217 132.003C157.742 132.084 157.328 132.168 157.079 132.077C156.783 131.967 156.537 132.041 156.176 132.161C155.925 132.246 155.619 132.351 155.187 132.453C154.685 132.572 154.337 132.751 154.042 132.914C153.685 133.114 153.413 133.279 152.962 133.4C152.901 133.413 152.832 133.426 152.763 133.434C152.23 133.498 151.736 133.629 151.41 133.855C151.261 133.958 151.077 134.046 150.887 134.138C150.635 134.259 150.372 134.387 150.164 134.565C149.993 134.711 149.892 134.909 149.803 135.083C149.775 135.138 149.749 135.19 149.722 135.238C149.567 135.318 149.412 135.397 149.256 135.475C149.222 135.469 149.185 135.463 149.147 135.457C148.955 135.425 148.719 135.386 148.477 135.432C148.164 135.492 147.937 135.647 147.718 135.826C147.655 135.872 147.594 135.921 147.534 135.97C147.275 136.182 147.029 136.405 146.713 136.589C146.498 136.714 146.24 136.83 145.991 136.948C145.619 137.124 145.266 137.303 145.088 137.505C145.021 137.581 145.005 137.696 144.989 137.811C144.989 137.811 144.989 137.812 144.989 137.813C144.988 137.82 144.987 137.828 144.986 137.836C144.454 138.182 143.933 138.529 143.462 138.802C143.426 138.811 143.389 138.819 143.354 138.827C143.342 138.829 143.331 138.832 143.319 138.834C143.101 138.875 142.893 138.9 142.721 138.849C142.535 138.795 142.227 138.882 141.898 138.937C141.683 138.974 141.457 139 141.26 138.985C141.145 138.976 141.077 139.086 140.998 139.2C140.926 139.306 140.845 139.415 140.724 139.427C140.664 139.432 140.592 139.416 140.516 139.397C140.448 139.38 140.377 139.362 140.305 139.357C140.24 139.352 140.116 139.424 139.945 139.513C139.944 139.515 139.943 139.516 139.942 139.518C139.907 139.561 139.808 139.617 139.687 139.664C139.344 139.651 138.927 139.628 138.517 139.6C138.427 139.531 138.349 139.44 138.286 139.322C138.24 139.236 138.2 139.134 138.16 139.029C138.105 138.887 138.049 138.739 137.974 138.623C137.915 138.531 137.849 138.496 137.806 138.536C137.785 138.554 137.77 138.588 137.756 138.619C137.74 138.655 137.726 138.686 137.708 138.686C137.695 138.685 137.681 138.661 137.664 138.631C137.637 138.584 137.601 138.522 137.548 138.521C137.352 138.516 137.127 138.538 136.907 138.558C136.661 138.581 136.42 138.6 136.229 138.58C136.014 138.556 135.707 138.643 135.397 138.726C135.182 138.784 134.965 138.84 134.781 138.858C134.601 138.876 134.418 138.816 134.243 138.756C134.034 138.684 133.835 138.612 133.66 138.68C133.625 138.694 133.574 138.79 133.511 138.911C133.483 138.963 133.454 139.019 133.422 139.074C133.405 139.111 133.388 139.148 133.37 139.184C133.206 139.169 133.044 139.152 132.882 139.132C132.879 139.118 132.875 139.103 132.872 139.089C132.872 139.088 132.872 139.088 132.872 139.088C132.789 138.75 132.732 138.296 132.445 138.488C132.369 138.537 132.299 138.643 132.234 138.739C132.17 138.832 132.111 138.915 132.059 138.921C132.001 138.926 131.959 138.843 131.917 138.753C131.858 138.625 131.801 138.484 131.661 138.541C131.652 138.545 131.642 138.549 131.631 138.554C131.529 138.593 131.377 138.649 131.17 138.799C130.804 138.697 130.427 138.57 130.028 138.409C129.517 138.203 129.031 137.966 128.296 137.596C128.276 137.586 128.221 137.544 128.2 137.535C127.954 137.429 127.737 137.349 127.548 137.281C127.434 137.24 127.321 137.225 127.218 137.239C127.016 137.284 126.737 137.382 126.371 137.517C125.848 137.722 125.316 138.092 124.907 138.593C124.5 139.095 124.226 139.679 124.177 140.263C124.136 140.657 124.279 141.09 124.572 141.444C124.691 141.597 124.808 141.717 124.925 141.81C125.116 141.962 125.276 142.094 125.395 142.207L125.281 142.135C125.505 142.378 125.896 142.763 126.307 143.126C126.334 143.16 126.362 143.195 126.391 143.229C126.605 143.48 126.767 143.798 126.949 144.118C126.991 144.192 127.035 144.266 127.079 144.338Z" fill="#E17C2F"/>
<path d="M17.925 192.019H8.40166V186.905H17.925C19.571 186.905 20.8979 186.645 21.9056 186.124C22.9134 185.586 23.6524 184.847 24.1227 183.907C24.593 182.966 24.8281 181.891 24.8281 180.682C24.8281 179.523 24.593 178.44 24.1227 177.432C23.6524 176.424 22.9134 175.618 21.9056 175.013C20.8979 174.392 19.571 174.081 17.925 174.081H10.4172V205.624H3.96752V168.942H17.925C20.7635 168.942 23.1821 169.445 25.1808 170.453C27.1796 171.461 28.708 172.847 29.7661 174.61C30.8243 176.374 31.3534 178.381 31.3534 180.632C31.3534 183 30.8243 185.032 29.7661 186.728C28.708 188.425 27.1796 189.735 25.1808 190.659C23.1821 191.566 20.7635 192.019 17.925 192.019ZM68.3865 186.3V188.291C68.3865 191.062 68.0254 193.548 67.3031 195.748C66.5809 197.948 65.5479 199.821 64.2043 201.366C62.8606 202.911 61.2566 204.096 59.3922 204.919C57.5279 205.725 55.4536 206.128 53.1693 206.128C50.9187 206.128 48.8611 205.725 46.9968 204.919C45.1324 204.096 43.5116 202.911 42.1344 201.366C40.7739 199.821 39.7157 197.948 38.9599 195.748C38.2209 193.548 37.8514 191.062 37.8514 188.291V186.3C37.8514 183.529 38.2209 181.043 38.9599 178.843C39.6989 176.643 40.7487 174.77 42.1092 173.225C43.4696 171.663 45.0821 170.478 46.9464 169.672C48.8108 168.849 50.8683 168.438 53.1189 168.438C55.4032 168.438 57.4775 168.849 59.3418 169.672C61.2062 170.478 62.8102 171.663 64.1539 173.225C65.5144 174.77 66.5557 176.643 67.2779 178.843C68.017 181.043 68.3865 183.529 68.3865 186.3ZM61.9116 188.291V186.25C61.9116 184.217 61.7101 182.42 61.307 180.858C60.9207 179.296 60.3496 177.986 59.5938 176.928C58.838 175.87 57.9142 175.072 56.8224 174.535C55.7307 173.98 54.4962 173.703 53.1189 173.703C51.7417 173.703 50.5072 173.98 49.4154 174.535C48.3405 175.072 47.4251 175.87 46.6693 176.928C45.9302 177.986 45.3592 179.296 44.9561 180.858C44.553 182.42 44.3514 184.217 44.3514 186.25V188.291C44.3514 190.323 44.553 192.12 44.9561 193.682C45.3592 195.244 45.9386 196.563 46.6945 197.637C47.4671 198.712 48.3909 199.527 49.4658 200.081C50.5575 200.619 51.792 200.888 53.1693 200.888C54.5634 200.888 55.7979 200.619 56.8728 200.081C57.9646 199.527 58.8799 198.712 59.619 197.637C60.3748 196.563 60.9459 195.244 61.3322 193.682C61.7185 192.12 61.9116 190.323 61.9116 188.291ZM100.935 184.234V189.323H81.4853V184.234H100.935ZM83.1229 168.942V205.624H76.6733V168.942H83.1229ZM105.848 168.942V205.624H99.3982V168.942H105.848ZM144.67 186.3V188.291C144.67 191.062 144.309 193.548 143.586 195.748C142.864 197.948 141.831 199.821 140.488 201.366C139.144 202.911 137.54 204.096 135.676 204.919C133.811 205.725 131.737 206.128 129.453 206.128C127.202 206.128 125.144 205.725 123.28 204.919C121.416 204.096 119.795 202.911 118.418 201.366C117.057 199.821 115.999 197.948 115.243 195.748C114.504 193.548 114.135 191.062 114.135 188.291V186.3C114.135 183.529 114.504 181.043 115.243 178.843C115.982 176.643 117.032 174.77 118.392 173.225C119.753 171.663 121.365 170.478 123.23 169.672C125.094 168.849 127.152 168.438 129.402 168.438C131.686 168.438 133.761 168.849 135.625 169.672C137.489 170.478 139.094 171.663 140.437 173.225C141.798 174.77 142.839 176.643 143.561 178.843C144.3 181.043 144.67 183.529 144.67 186.3ZM138.195 188.291V186.25C138.195 184.217 137.993 182.42 137.59 180.858C137.204 179.296 136.633 177.986 135.877 176.928C135.121 175.87 134.197 175.072 133.106 174.535C132.014 173.98 130.779 173.703 129.402 173.703C128.025 173.703 126.79 173.98 125.699 174.535C124.624 175.072 123.708 175.87 122.953 176.928C122.214 177.986 121.642 179.296 121.239 180.858C120.836 182.42 120.635 184.217 120.635 186.25V188.291C120.635 190.323 120.836 192.12 121.239 193.682C121.642 195.244 122.222 196.563 122.978 197.637C123.75 198.712 124.674 199.527 125.749 200.081C126.841 200.619 128.075 200.888 129.453 200.888C130.847 200.888 132.081 200.619 133.156 200.081C134.248 199.527 135.163 198.712 135.902 197.637C136.658 196.563 137.229 195.244 137.615 193.682C138.002 192.12 138.195 190.323 138.195 188.291ZM163.664 205.624H155.829L155.879 200.51H163.664C165.915 200.51 167.796 200.023 169.307 199.048C170.819 198.057 171.961 196.647 172.734 194.816C173.506 192.985 173.893 190.802 173.893 188.265V186.275C173.893 184.31 173.674 182.571 173.238 181.06C172.801 179.548 172.154 178.272 171.298 177.23C170.441 176.189 169.391 175.408 168.149 174.887C166.922 174.35 165.503 174.081 163.891 174.081H155.678V168.942H163.891C166.326 168.942 168.552 169.353 170.567 170.176C172.599 170.982 174.346 172.158 175.807 173.703C177.286 175.232 178.419 177.062 179.209 179.196C180.015 181.312 180.418 183.688 180.418 186.325V188.265C180.418 190.886 180.015 193.262 179.209 195.395C178.419 197.528 177.286 199.359 175.807 200.888C174.329 202.416 172.566 203.592 170.517 204.415C168.468 205.221 166.183 205.624 163.664 205.624ZM159.406 168.942V205.624H152.957V168.942H159.406ZM202.486 174.006L191.627 205.624H184.85L198.631 168.942H202.965L202.486 174.006ZM211.556 205.624L200.672 174.006L200.168 168.942H204.527L218.358 205.624H211.556ZM211.027 191.994V197.134H191.149V191.994H211.027Z" fill="black"/>
</svg>
