<svg width="59" height="62" viewBox="0 0 59 62" fill="none" xmlns="http://www.w3.org/2000/svg">
<path d="M45.9903 60.1294V50.8151M45.9903 19.9022L56.7896 11.2629V20.9822L45.9903 30.9715M45.9903 19.9022V30.9715M45.9903 19.9022L35.191 11.2627V20.982L45.9903 30.9715M45.9903 30.9715V41.5007M45.9903 41.5007L56.7896 30.9715V39.3409C56.7896 43.9305 53.2798 50.8151 45.9903 50.8151M45.9903 41.5007V50.8151M45.9903 41.5007L35.191 30.9713V39.3407C35.191 43.9304 38.7009 50.8151 45.9903 50.8151M24.6617 60.1294V29.8914M24.6617 29.8914V22.8719C24.8417 17.0223 20.558 4.51321 1.98332 1.27344C-0.176526 10.8128 1.33537 29.8914 24.6617 29.8914ZM24.6617 29.8914L10.0828 12.0727" stroke="#E17C2F" stroke-width="2.54642" stroke-linecap="round" stroke-linejoin="round"/>
</svg>
