<svg width="9" height="9" viewBox="0 0 9 9" fill="none" xmlns="http://www.w3.org/2000/svg">
<path d="M6 3.75V6V8.25C6 8.25 3 7.5 3 4.125V3.75C3 3.47625 3.15 3.23625 3.375 3.105L3.84375 3.375L4.5 3L5.15625 3.375L5.625 3.105C5.85 3.23625 6 3.47625 6 3.75ZM4.5 2.4375L5.15625 2.8125L5.72625 2.48625C5.52 2.1225 5.21625 1.8525 4.86375 1.74375C4.83198 1.47047 4.70104 1.21835 4.49576 1.03519C4.29047 0.852022 4.02512 0.750547 3.75 0.75V1.5C3.915 1.5 4.05 1.60875 4.1025 1.75875C3.76125 1.875 3.4725 2.1375 3.27375 2.48625L3.84375 2.8125L4.5 2.4375Z" fill="#C32C01"/>
</svg>
