<?xml version="1.0" encoding="UTF-8" standalone="yes"?>
<svg width="1073" height="1073" viewBox="0 0 1073 1073" fill="none" version="1.2" baseProfile="tiny-ps" xmlns="http://www.w3.org/2000/svg">
  <title>bimi-svg-tiny-12-ps</title>
  <rect width="1072.04" height="1072.04" fill="white"/>
  <path d="M418.492 806.911H416.866L422.724 790.964H424.706L430.631 806.911H428.96L427.401 802.679H420.051L418.492 806.911ZM423.504 793.214L420.541 801.276H426.889L423.904 793.214C423.838 792.991 423.726 792.724 423.704 792.568C423.682 792.701 423.593 792.991 423.504 793.214Z" fill="#E17C2F"/>
  <path d="M411.408 806.911H400.317V805.441L409.493 792.434H400.383V790.964H411.453V792.39L402.232 805.441H411.408V806.911Z" fill="#E17C2F"/>
  <path d="M394.257 806.911H383.165V805.441L392.341 792.434H383.232V790.964H394.301V792.39L385.081 805.441H394.257V806.911Z" fill="#E17C2F"/>
  <path d="M376.081 790.964V806.911H374.477V790.964H376.081Z" fill="#E17C2F"/>
  <path d="M362.645 801.054H358.168V806.911H356.564V790.964H362.645C365.718 790.964 367.656 792.969 367.656 795.975C367.656 798.871 365.696 801.054 362.645 801.054ZM362.422 792.412H358.168V799.606H362.333C364.649 799.606 365.985 798.136 365.985 795.953C365.985 793.748 364.627 792.412 362.422 792.412Z" fill="#E17C2F"/>
  <path d="M560.379 806.911H558.776V790.964H564.722C567.952 790.964 569.912 792.746 569.912 795.574C569.912 797.869 568.709 799.472 566.66 800.029L570.068 806.911H568.286L565.034 800.296H560.379V806.911ZM560.379 792.412V798.848H564.767C566.972 798.848 568.264 797.646 568.264 795.619C568.264 793.548 566.905 792.412 564.722 792.412H560.379Z" fill="#E17C2F"/>
  <path d="M551.288 806.911H541.733V790.964H551.266V792.434H543.337V798.18H550.531V799.628H543.337V805.441H551.288V806.911Z" fill="#E17C2F"/>
  <path d="M526.805 792.212C523.13 792.212 520.813 794.929 520.813 799.005C520.813 803.147 523.263 805.664 526.849 805.664C529.522 805.664 532.128 804.372 532.128 800.541V799.717H526.359V798.292H533.642V806.933H532.373L532.217 804.394C531.37 805.976 529.366 807.178 526.782 807.178C522.261 807.178 519.143 803.927 519.143 799.005C519.143 794.127 522.261 790.697 526.827 790.697C530.19 790.697 532.796 792.612 533.42 795.508H531.682C531.014 793.325 529.143 792.212 526.805 792.212Z" fill="#E17C2F"/>
  <path d="M503.336 806.911H501.732V790.964H507.679C510.908 790.964 512.868 792.746 512.868 795.574C512.868 797.869 511.665 799.472 509.616 800.029L513.024 806.911H511.242L507.99 800.296H503.336V806.911ZM503.336 792.412V798.848H507.723C509.928 798.848 511.22 797.646 511.22 795.619C511.22 793.548 509.861 792.412 507.679 792.412H503.336Z" fill="#E17C2F"/>
  <path d="M481.946 801.365V790.964H483.55V801.298C483.55 804.105 485.087 805.619 487.871 805.619C490.588 805.619 492.125 804.06 492.125 801.298V790.964H493.728V801.365C493.728 804.973 491.501 807.178 487.871 807.178C484.174 807.178 481.946 804.996 481.946 801.365Z" fill="#E17C2F"/>
  <path d="M463.819 806.911V790.964H469.654C472.728 790.964 474.621 792.523 474.621 795.084C474.621 796.955 473.797 798.225 472.149 798.871C473.997 799.472 474.933 800.764 474.933 802.724C474.933 805.285 473.017 806.911 469.988 806.911H463.819ZM469.632 792.389H465.423V798.225H469.832C471.837 798.225 472.973 797.111 472.973 795.218C472.973 793.436 471.77 792.389 469.632 792.389ZM469.988 799.628H465.423V805.463H469.988C472.082 805.463 473.307 804.372 473.307 802.523C473.307 800.719 472.06 799.628 469.988 799.628Z" fill="#E17C2F"/>
  <path d="M703.575 789.762L701.882 787.045H703.263L704.555 789.005L705.824 787.045H707.205L705.512 789.762H703.575ZM699.298 795.107C699.298 792.434 701.436 790.675 704.644 790.675C707.517 790.675 709.41 792.279 709.655 794.951H708.029C707.851 793.147 706.626 792.123 704.621 792.123C702.372 792.123 700.902 793.281 700.902 795.085C700.902 796.488 701.726 797.379 703.396 797.802L706.136 798.47C708.63 799.072 709.922 800.497 709.922 802.657C709.922 805.419 707.784 807.179 704.488 807.179C701.392 807.179 699.298 805.553 699.098 802.947H700.746C700.835 804.617 702.305 805.709 704.488 805.709C706.826 805.709 708.319 804.573 708.319 802.746C708.319 801.321 707.517 800.386 705.802 799.985L703.107 799.317C700.612 798.715 699.298 797.29 699.298 795.107Z" fill="#E17C2F"/>
  <path d="M693.117 798.938C693.117 803.771 689.976 807.178 685.522 807.178C681.045 807.178 677.927 803.771 677.927 798.938C677.927 794.105 681.067 790.675 685.522 790.675C689.999 790.675 693.117 794.082 693.117 798.938ZM691.468 798.938C691.468 794.951 689.041 792.234 685.522 792.234C682.003 792.234 679.597 794.951 679.597 798.938C679.597 802.924 682.003 805.642 685.522 805.642C689.041 805.642 691.468 802.902 691.468 798.938Z" fill="#E17C2F"/>
  <path d="M664.653 792.212C660.978 792.212 658.661 794.929 658.661 799.005C658.661 803.147 661.111 805.664 664.697 805.664C667.37 805.664 669.976 804.372 669.976 800.541V799.717H664.207V798.292H671.49V806.934H670.221L670.065 804.395C669.218 805.976 667.214 807.179 664.63 807.179C660.109 807.179 656.991 803.927 656.991 799.005C656.991 794.127 660.109 790.697 664.675 790.697C668.038 790.697 670.644 792.613 671.267 795.508H669.53C668.862 793.325 666.991 792.212 664.653 792.212Z" fill="#E17C2F"/>
  <path d="M639.465 806.911H637.862V790.964H639.488L648.263 804.238V790.964H649.844V806.911H648.263L639.465 793.637V806.911Z" fill="#E17C2F"/>
  <path d="M619.275 806.911H617.649L623.507 790.964H625.489L631.413 806.911H629.743L628.184 802.679H620.834L619.275 806.911ZM624.286 793.214L621.324 801.276H627.672L624.687 793.214C624.62 792.991 624.509 792.724 624.487 792.568C624.465 792.702 624.375 792.991 624.286 793.214Z" fill="#E17C2F"/>
  <path d="M604.88 790.964V805.441H612.207V806.911H603.276V790.964H604.88Z" fill="#E17C2F"/>
  <path d="M533.14 264.175C543.477 263.793 552.607 262.986 564.789 263.534C564.811 263.535 564.833 263.539 564.855 263.54C573.593 263.988 584.205 265.305 593.24 267.025C600.401 268.337 607.544 269.747 614.649 271.247C625.94 273.636 637.188 276.159 648.505 278.978C649.474 279.22 650.459 279.469 651.421 279.715C651.626 279.768 651.831 279.82 652.035 279.872C662.242 281.556 672.686 284.552 679.856 287.82C683.888 289.619 686.991 291.582 689.387 293.284C690.378 294 691.273 294.67 692.15 295.319C694.052 296.726 695.766 297.972 697.738 299.115C698.792 299.73 700.266 300.554 702.207 301.757C704.329 303.127 707.159 304.79 710.665 308.448C714.255 312.008 717.33 318.581 717.986 323.563C719.208 332.016 718.311 338.311 716.967 344.865C715.847 349.583 714.588 354.366 711.131 360.655C710.889 360.773 710.087 362.351 709.408 363.653C705.375 371.865 699.915 379.539 697.503 383.298C696.427 385.041 695.198 386.782 693.85 388.474C690.214 392.993 686.389 397.095 682.865 401.002C678.363 405.972 674.495 410.364 672.839 413.285C672.76 413.425 672.681 413.565 672.6 413.702C670.595 417.079 668.278 419.565 664.912 423.165C662.482 425.764 659.496 428.942 655.699 433.436C651.323 438.621 648.004 442.087 645.278 445.005C644.536 445.801 643.845 446.549 643.205 447.265C640.208 450.664 637.717 453.557 634.952 458.014C631.148 464.129 627.02 470.299 623.286 474.828C621.587 476.886 619.774 479.35 617.906 481.913C616.578 483.734 615.222 485.607 613.837 487.448C612.597 489.096 611.36 490.656 610.081 492.129C607.821 494.731 605.601 496.607 603.631 498.242C603.019 498.751 602.425 499.239 601.863 499.72C600.164 501.85 598.447 503.962 596.726 506.056C596.522 506.451 596.304 506.878 596.08 507.316C594.953 509.522 593.553 512.221 591.455 515.205C588.138 519.924 584.696 523.471 581.159 527.278C578.848 529.767 576.511 532.345 574.154 535.435C573.673 536.066 573.207 536.689 572.729 537.345C570.723 540.095 568.557 543.314 566.37 546.494C563.118 551.23 559.768 555.9 556.948 558.831C555.894 559.93 554.743 560.673 553.594 561.396C553.588 561.399 553.583 561.403 553.578 561.405C553.499 561.455 553.419 561.504 553.341 561.553C551.584 563.62 549.731 565.69 547.788 567.694C543.219 572.404 538.705 577.744 533.106 582.933C532.491 583.596 531.858 584.257 531.226 584.902C528.121 588.072 524.923 590.902 523.024 592.963C522.827 593.177 522.592 593.414 522.32 593.671C521.491 594.33 520.834 595.112 517.944 596.445C516.468 596.923 513.739 598.577 507.955 596.9C505.211 596.01 502.906 594.084 501.68 592.558C500.415 591.01 499.824 589.784 499.379 588.805C497.807 585.705 496.186 581.664 494.898 577.724C493.217 572.621 491.899 567.565 490.738 563.499C490.604 563.029 490.497 562.569 490.408 562.093C490.059 560.236 490.039 558.38 490.025 556.503C490.008 554.315 489.996 552.078 489.481 549.726C489.224 548.547 488.839 547.294 488.428 545.959C488.066 544.783 487.682 543.541 487.349 542.231C487.04 541.015 486.759 538.228 486.386 534.702C486.343 534.298 486.298 533.878 486.254 533.467C486.055 531.629 485.825 529.622 485.549 527.688C485.419 527.17 485.291 526.67 485.164 526.209C485.03 525.711 484.934 525.454 484.679 524.452C483.309 520.258 481.28 512.844 480.046 507.33C479.415 505.903 478.739 504.725 477.99 503.809C477.45 503.137 476.867 502.648 476.258 502.082C475.437 501.348 474.582 500.558 473.816 499.446C473.215 498.561 472.842 497.457 472.883 496.665C472.902 496.294 473.01 495.984 473.106 495.709C473.219 495.406 473.317 495.133 473.259 494.829C473.217 494.609 473.062 494.399 472.874 494.137C472.573 493.712 472.187 493.176 472.023 492.291C471.782 490.982 471.565 489.685 471.34 488.254C470.998 486.067 470.672 483.771 470.35 481.492C469.776 477.413 469.219 473.413 468.616 470.26C467.94 466.73 467.539 461.595 467.143 456.475C466.867 452.897 466.59 449.315 466.222 446.265C465.861 443.276 465.126 440.22 464.415 437.267C463.561 433.719 462.74 430.301 462.639 427.303C462.62 426.7 462.962 425.889 463.388 424.867C463.691 424.143 464.038 423.329 464.328 422.389C463.726 418.652 463.142 414.907 462.576 411.178C462.492 411.057 462.409 410.94 462.321 410.809C462.319 410.807 462.316 410.807 462.314 410.805C461.226 409.22 459.923 407.35 459.014 404.958C458.278 403.014 457.801 400.75 457.906 398.064C457.96 396.504 458.369 395.501 458.732 394.564C459.09 393.656 459.412 392.848 459.321 391.742C459.221 390.5 458.668 389.091 458.069 387.591C457.212 385.265 456.315 383.71 456.244 379.623C456.244 379.473 456.244 379.321 456.246 379.165C456.255 379.09 456.263 379.011 456.272 378.931C456.442 377.297 456.619 374.698 457.264 371.951C456.825 367.985 456.328 363.919 455.839 359.804C455.337 355.67 454.965 351.56 454.637 347.633C454.436 345.234 454.245 342.909 454.027 340.68C453.098 331.847 450.288 317.699 450.957 306.391C450.96 306.263 450.961 306.133 450.964 306.004C451.144 299.521 452.424 293.304 454.587 288.696C456.793 284.002 459.712 281.374 462.724 281.381C465.736 281.387 468.642 283.943 470.967 288.487C473.245 292.95 474.767 298.971 475.312 305.317C475.322 305.432 475.332 305.547 475.341 305.66C475.997 316.158 478.317 322.674 481.111 335.404C481.216 335.805 481.321 336.214 481.422 336.633C481.471 336.829 481.519 337.026 481.566 337.22C482.619 341.585 483.904 345.301 485.246 348.846C485.553 349.66 485.863 350.466 486.17 351.267C486.565 352.299 486.933 353.493 487.281 354.795C488.777 360.602 489.881 368.604 490.392 375.41C490.364 375.649 490.457 376.502 490.574 377.426C490.59 377.548 490.606 377.684 490.622 377.804C490.834 379.472 491.099 381.107 491.4 382.998C491.972 386.594 492.692 391.193 493.528 399.35C493.738 401.416 493.959 403.735 494.188 406.33C494.812 409.977 495.42 413.634 496.009 417.289C499.51 439.006 502.619 460.818 505.674 482.459C507.508 494.885 508.848 505.633 511.958 518.243C512.636 521.367 513.243 525.218 513.717 528.382C514.068 530.723 514.4 533.035 514.728 535.34C514.825 535.841 514.924 536.344 515.024 536.858C516.253 543.189 517.649 550.503 518.745 556.835C519.285 559.956 519.775 562.802 520.154 565.183C524.397 561.602 528.58 557.575 533.484 552.996C542.245 544.955 550.704 534.287 558.987 523.94C563.549 518.163 568.298 512.546 573.032 507.1C579.646 499.503 586.024 492.218 591.956 484.555C594.119 481.773 596.245 478.946 598.329 476.08C601.619 471.555 604.921 467.056 608.254 462.57C611.256 458.087 614.085 453.809 616.731 449.855C620.44 444.304 623.812 439.393 626.468 435.662C626.619 435.449 626.766 435.241 626.909 435.038C634.038 425.216 642.559 415.784 648.901 408.513C649.958 407.309 650.959 406.163 651.871 405.113C653.115 403.482 654.354 401.851 655.556 400.242C659.066 395.555 662.629 390.907 666.21 386.311C666.642 385.975 667.071 385.65 667.518 385.31C670.786 382.841 674.118 379.488 677.701 375.36C679.915 372.784 682.16 369.61 684.353 365.601C686.58 361.593 687.739 358.334 691.074 350.685C691.3 350.257 691.575 349.631 691.843 348.928C693.119 345.435 694.126 343.162 694.963 341.485C695.205 340.979 695.426 340.495 695.616 339.999C696.266 338.298 696.062 336.345 695.682 334.177C695.299 332.062 694.75 329.506 694.497 327.468C694.419 326.861 694.372 326.335 694.374 325.864C695.053 323.491 689.916 319.821 686.365 317.953C682.619 315.922 679.555 314.804 676.936 313.863C676.599 313.75 676.261 313.639 675.941 313.537C674.506 313.078 673.234 312.709 672.006 312.24C668.05 310.692 662.771 307.815 658.496 305.579C655.917 304.188 650.868 302.902 645.959 302.222C644.452 302.003 642.932 301.811 641.539 301.659C639.23 301.407 636.171 300.706 632.574 299.9C628.842 299.064 624.516 298.11 619.813 297.417C607.925 295.672 601.605 294.782 596.519 294.056C595.088 293.854 593.713 293.655 592.384 293.473C591.033 293.286 589.601 293.081 588.103 292.861C584.884 292.391 581.378 291.883 577.914 291.475C572.348 290.785 567.334 290.597 562.017 290.38C561.776 290.386 561.454 290.389 561.12 290.398C553.209 289.697 543.163 289.577 533.82 289.31C531.057 289.61 528.311 289.944 525.586 290.319C519.284 291.179 513.119 291.129 508.396 290.084C507.534 289.893 506.734 289.67 506.027 289.413C505.665 289.287 505.342 289.148 505.053 288.996C504.811 288.823 504.408 288.734 504.653 288.355C504.603 288.381 504.45 288.444 504.4 288.468C501.431 287.806 500.274 286.225 499.377 284.492C498.517 282.733 499.114 280.426 500.019 278.231L499.85 278.309C501.413 276.574 502.313 275.418 503.961 274.078C508.226 270.538 514.532 267.741 521.344 266.294C524.767 265.566 528.198 264.901 531.645 264.289C531.946 264.26 532.838 264.165 533.14 264.175ZM509.73 572.796C509.556 572.851 509.405 572.904 509.273 572.951C508.29 573.339 508.207 573.502 508.196 573.545C508.212 573.587 508.401 573.523 508.631 573.418C508.888 573.28 509.138 573.144 509.382 573.013C509.499 572.942 509.614 572.867 509.73 572.796Z" fill="#E17C2F"/>
  <path d="M563.023 326.824C536.921 322.163 490 320.221 469.802 319.832C469.802 331.873 472.366 355.955 482.62 355.955C495.438 355.955 525.734 355.955 547.874 359.451C565.586 362.248 602.642 373.046 618.955 378.095C629.443 380.814 649.951 382.29 648.087 366.443C645.756 346.633 595.65 332.65 563.023 326.824Z" fill="#E17C2F"/>
  <path d="M580.501 395.574C580.501 406.515 571.632 415.384 560.692 415.384C549.752 415.384 540.883 406.515 540.883 395.574C540.883 384.634 549.752 375.765 560.692 375.765C571.632 375.765 580.501 384.634 580.501 395.574Z" fill="#E17C2F"/>
  <path d="M578.171 395.574C578.171 385.921 570.345 378.095 560.692 378.095C551.039 378.095 543.213 385.921 543.213 395.574C543.213 405.228 551.039 413.053 560.692 413.053V415.384C549.752 415.384 540.883 406.515 540.883 395.574C540.883 384.634 549.752 375.765 560.692 375.765C571.632 375.765 580.501 384.634 580.501 395.574C580.501 406.515 571.632 415.384 560.692 415.384V413.053C570.345 413.053 578.171 405.228 578.171 395.574Z" fill="#E17C2F"/>
  <path d="M559.527 451.507C559.527 465.022 548.571 475.977 535.056 475.977C521.542 475.977 510.586 465.022 510.586 451.507C510.586 437.992 521.542 427.036 535.056 427.036C548.571 427.036 559.527 437.992 559.527 451.507Z" fill="#E17C2F"/>
  <path d="M557.196 451.507C557.196 439.279 547.284 429.367 535.056 429.367C522.829 429.367 512.916 439.279 512.916 451.507C512.916 463.734 522.829 473.647 535.056 473.647V475.977C521.542 475.977 510.586 465.022 510.586 451.507C510.586 437.992 521.542 427.036 535.056 427.036C548.571 427.036 559.527 437.992 559.527 451.507C559.527 465.022 548.571 475.977 535.056 475.977V473.647C547.284 473.647 557.196 463.734 557.196 451.507Z" fill="#E17C2F"/>
  <path d="M608.468 438.689C608.468 447.699 601.164 455.003 592.154 455.003C583.144 455.003 575.84 447.699 575.84 438.689C575.84 429.679 583.144 422.375 592.154 422.375C601.164 422.375 608.468 429.679 608.468 438.689Z" fill="#E17C2F"/>
  <path d="M606.137 438.689C606.137 430.966 599.877 424.706 592.154 424.706C584.431 424.706 578.171 430.966 578.171 438.689C578.171 446.412 584.431 452.672 592.154 452.672V455.003C583.144 455.003 575.84 447.699 575.84 438.689C575.84 429.679 583.144 422.375 592.154 422.375C601.164 422.375 608.468 429.679 608.468 438.689C608.468 447.699 601.164 455.003 592.154 455.003V452.672C599.877 452.672 606.137 446.412 606.137 438.689Z" fill="#E17C2F"/>
  <path d="M545.544 512.1C545.544 519.179 539.805 524.918 532.726 524.918C525.647 524.918 519.908 519.179 519.908 512.1C519.908 505.021 525.647 499.282 532.726 499.282C539.805 499.282 545.544 505.021 545.544 512.1Z" fill="#E17C2F"/>
  <path d="M543.213 512.1C543.213 506.308 538.518 501.613 532.726 501.613C526.934 501.613 522.239 506.308 522.239 512.1C522.239 517.892 526.934 522.588 532.726 522.588V524.918C525.647 524.918 519.908 519.179 519.908 512.1C519.908 505.021 525.647 499.282 532.726 499.282C539.805 499.282 545.544 505.021 545.544 512.1C545.544 519.179 539.805 524.918 532.726 524.918V522.588C538.518 522.588 543.213 517.892 543.213 512.1Z" fill="#E17C2F"/>
  <path d="M524.569 385.087C524.569 390.235 520.396 394.409 515.247 394.409C510.099 394.409 505.925 390.235 505.925 385.087C505.925 379.939 510.099 375.765 515.247 375.765C520.396 375.765 524.569 379.939 524.569 385.087Z" fill="#E17C2F"/>
  <path d="M522.239 385.087C522.239 381.226 519.108 378.095 515.247 378.095C511.386 378.095 508.256 381.226 508.256 385.087C508.256 388.948 511.386 392.079 515.247 392.079V394.409C510.099 394.409 505.925 390.235 505.925 385.087C505.925 379.939 510.099 375.765 515.247 375.765C520.396 375.765 524.569 379.939 524.569 385.087C524.569 390.235 520.396 394.409 515.247 394.409V392.079C519.108 392.079 522.239 388.948 522.239 385.087Z" fill="#E17C2F"/>
  <path d="M624.781 406.062C624.781 410.567 621.129 414.218 616.625 414.218C612.12 414.218 608.468 410.567 608.468 406.062C608.468 401.557 612.12 397.905 616.625 397.905C621.129 397.905 624.781 401.557 624.781 406.062Z" fill="#E17C2F"/>
  <path d="M622.451 406.062C622.451 402.844 619.842 400.235 616.625 400.235C613.407 400.235 610.798 402.844 610.798 406.062C610.798 409.279 613.407 411.888 616.625 411.888V414.218C612.12 414.218 608.468 410.567 608.468 406.062C608.468 401.557 612.12 397.905 616.625 397.905C621.129 397.905 624.781 401.557 624.781 406.062C624.781 410.567 621.129 414.218 616.625 414.218V411.888C619.842 411.888 622.451 409.279 622.451 406.062Z" fill="#E17C2F"/>
  <path d="M362.101 568.957C363.321 568.779 365.106 568.498 366.73 568.695C366.734 568.696 366.739 568.697 366.744 568.697C367.64 568.769 368.683 569 369.666 569.241C371.082 569.587 372.375 569.956 373.021 569.815C374.156 569.565 375.478 569.752 376.637 569.951C377.744 570.14 378.709 570.336 379.288 570.122C379.98 569.867 380.552 570.04 381.394 570.32C381.978 570.517 382.69 570.763 383.697 571.001C384.866 571.279 385.679 571.694 386.366 572.075C387.199 572.54 387.832 572.926 388.884 573.206C389.025 573.238 389.186 573.268 389.346 573.286C390.588 573.436 391.739 573.741 392.5 574.269C392.846 574.509 393.275 574.713 393.718 574.927C394.305 575.209 394.92 575.508 395.404 575.921C395.803 576.262 396.039 576.722 396.246 577.13C396.311 577.257 396.372 577.38 396.435 577.491C396.796 577.677 397.156 577.861 397.518 578.042C397.599 578.03 397.686 578.016 397.775 578.001C398.223 577.927 398.772 577.835 399.334 577.942C400.064 578.082 400.595 578.445 401.105 578.862C401.25 578.97 401.393 579.084 401.533 579.198C402.137 579.692 402.712 580.212 403.447 580.639C403.949 580.93 404.549 581.201 405.131 581.477C405.996 581.886 406.819 582.304 407.234 582.774C407.39 582.95 407.428 583.22 407.464 583.486V583.491C407.466 583.509 407.468 583.527 407.471 583.545C408.711 584.353 409.927 585.161 411.024 585.796C411.109 585.817 411.192 585.837 411.274 585.855C411.301 585.861 411.329 585.866 411.356 585.871C411.863 585.967 412.35 586.024 412.751 585.905C413.186 585.781 413.901 585.984 414.667 586.113C415.169 586.199 415.696 586.26 416.156 586.224C416.424 586.203 416.583 586.459 416.766 586.725C416.934 586.971 417.122 587.225 417.403 587.253C417.544 587.266 417.712 587.226 417.89 587.182C418.046 587.144 418.213 587.103 418.379 587.091C418.531 587.08 418.821 587.247 419.219 587.455C419.221 587.459 419.225 587.463 419.228 587.467C419.31 587.567 419.54 587.697 419.822 587.806C420.621 587.776 421.594 587.721 422.549 587.656C422.757 587.496 422.938 587.283 423.086 587.007C423.192 586.809 423.288 586.57 423.382 586.327C423.509 585.995 423.639 585.652 423.814 585.38C423.951 585.167 424.104 585.085 424.206 585.177C424.253 585.22 424.289 585.299 424.322 585.371C424.359 585.453 424.392 585.527 424.433 585.525C424.463 585.524 424.496 585.467 424.536 585.398C424.6 585.287 424.683 585.146 424.806 585.143C425.262 585.132 425.786 585.183 426.299 585.23C426.872 585.282 427.434 585.328 427.881 585.28C428.381 585.226 429.097 585.428 429.818 585.621C430.32 585.756 430.826 585.886 431.254 585.928C431.674 585.97 432.1 585.829 432.508 585.689C432.996 585.522 433.46 585.356 433.867 585.514C433.95 585.547 434.068 585.771 434.215 586.051C434.278 586.171 434.348 586.301 434.422 586.431C434.461 586.517 434.5 586.604 434.543 586.686C434.924 586.651 435.303 586.614 435.681 586.568C435.688 586.534 435.696 586.5 435.703 586.465V586.463C435.896 585.676 436.029 584.618 436.7 585.066C436.875 585.178 437.038 585.428 437.19 585.651C437.338 585.868 437.477 586.061 437.597 586.074C437.733 586.088 437.831 585.893 437.927 585.682C438.065 585.385 438.2 585.055 438.525 585.189C438.548 585.198 438.571 585.208 438.596 585.218C438.833 585.311 439.187 585.44 439.67 585.789C440.522 585.551 441.401 585.256 442.331 584.881C443.522 584.402 444.655 583.85 446.368 582.988C446.416 582.965 446.542 582.866 446.591 582.844C447.164 582.598 447.672 582.411 448.112 582.253C448.378 582.158 448.642 582.122 448.881 582.153C449.353 582.259 450.004 582.488 450.856 582.803C452.073 583.28 453.313 584.142 454.266 585.309C455.214 586.478 455.855 587.839 455.968 589.201C456.063 590.12 455.729 591.128 455.046 591.955C454.769 592.31 454.496 592.591 454.225 592.808C453.78 593.162 453.406 593.468 453.128 593.732L453.396 593.564C452.873 594.131 451.961 595.028 451.004 595.874C450.941 595.954 450.876 596.034 450.808 596.113C450.31 596.698 449.932 597.44 449.507 598.186C449.408 598.358 449.307 598.531 449.204 598.701C448.425 600.01 445.811 600.957 444.327 601.316C444.3 601.323 444.272 601.331 444.245 601.338C443.897 601.428 443.57 601.535 443.189 601.652C442.281 601.916 441.005 602.335 438.291 602.342C437.527 602.487 436.762 602.595 435.995 602.665C435.927 602.671 435.858 602.678 435.79 602.683C429.231 603.084 424.217 602.866 416.561 601.195C416.245 601.101 415.926 601.004 415.607 600.901C415.516 600.885 415.424 600.866 415.33 600.849C413.51 600.534 411.104 599.858 409.756 598.974C408.043 597.87 407.025 596.899 406.249 596.092C405.674 595.647 405.122 595.182 404.594 594.702C401.445 591.685 399.092 589.028 396.576 587.458C396.251 587.263 395.921 587.066 395.595 586.875C394.293 586.111 392.984 585.376 391.662 584.681C390.446 584.041 389.219 583.426 387.998 582.851C387.228 582.634 386.483 582.47 385.818 582.339C385.447 582.266 385.098 582.202 384.796 582.153C384.538 582.169 384.24 582.161 383.965 582.118C382.867 581.937 381.255 581.394 379.994 581.062C379.787 581.007 379.594 580.958 379.409 580.914C378.367 580.916 377.297 580.962 376.227 581.042C376.158 580.98 376.086 580.916 376.013 580.851C375.112 580.033 373.947 580.029 372.131 580.116C371.339 580.155 370.421 580.214 369.338 580.245C368.641 580.266 368.254 579.988 367.934 579.761C367.921 579.751 367.908 579.742 367.895 579.733C367.804 579.678 367.719 579.626 367.633 579.585C367.297 579.421 366.979 579.665 366.603 579.949C366.114 580.318 365.514 580.755 364.686 580.45C362.078 579.463 361.162 580.273 360.517 580.919C360.33 581.107 360.169 581.28 360.002 581.386C359.459 581.724 358.704 581.574 358.054 581.347C357.941 581.307 357.814 581.299 357.676 581.322C356.925 581.473 356.026 581.933 355.346 582.385C355.017 582.603 354.536 582.713 353.985 582.835C353.413 582.963 352.764 583.107 352.121 583.413C350.5 584.188 349.713 584.594 349.083 584.925C348.904 585.019 348.741 585.106 348.58 585.195C348.069 585.478 347.443 585.783 346.859 586.101C346.158 586.481 345.527 586.883 345.15 587.257C344.456 587.461 343.858 587.671 343.418 587.842C342.548 588.358 341.67 588.845 340.748 589.322C339.696 589.864 338.292 589.902 336.879 589.335C335.471 588.78 334.173 587.586 333.889 586.067C333.612 584.552 333.28 583.119 333.192 581.893C333.118 580.665 333.413 579.692 334.071 579.114C334.647 578.611 335.229 578.074 335.794 577.53C337.092 576.408 338.419 575.56 339.715 574.854C342.508 573.349 345.212 572.456 347.808 571.829C349.62 571.397 351.385 571.074 352.99 570.782C353.152 570.753 353.32 570.722 353.477 570.693C353.906 570.456 354.309 570.224 354.645 570.013C355.776 569.488 356.892 569.111 357.742 568.911C358.838 568.656 359.61 568.798 360.232 568.923C360.66 569.01 361.022 569.094 361.37 569.057C361.556 569.037 361.807 569 362.101 568.957Z" fill="#E17C2F"/>
  <path d="M667.663 569.99C666.442 569.812 664.658 569.531 663.033 569.728C663.029 569.729 663.024 569.73 663.02 569.731C662.123 569.802 661.08 570.033 660.098 570.275C658.681 570.62 657.388 570.989 656.743 570.848C655.607 570.599 654.285 570.786 653.126 570.985C652.02 571.173 651.054 571.37 650.475 571.155C649.784 570.9 649.211 571.073 648.37 571.353C647.785 571.55 647.074 571.796 646.067 572.034C644.897 572.313 644.084 572.728 643.397 573.108C642.565 573.574 641.931 573.959 640.88 574.239C640.738 574.271 640.578 574.301 640.418 574.319C639.176 574.469 638.025 574.774 637.263 575.302C636.918 575.543 636.489 575.747 636.046 575.96C635.459 576.243 634.843 576.541 634.359 576.954C633.96 577.295 633.724 577.756 633.517 578.163C633.453 578.29 633.392 578.413 633.328 578.525C632.968 578.711 632.607 578.894 632.245 579.076C632.165 579.064 632.077 579.049 631.988 579.035C631.541 578.96 630.992 578.868 630.429 578.975C629.699 579.115 629.169 579.478 628.658 579.895C628.514 580.004 628.37 580.117 628.23 580.232C627.627 580.725 627.052 581.246 626.316 581.672C625.815 581.963 625.214 582.234 624.632 582.51C623.768 582.919 622.944 583.337 622.529 583.807C622.373 583.984 622.335 584.253 622.299 584.52V584.524C622.297 584.542 622.295 584.561 622.293 584.579C621.052 585.386 619.837 586.195 618.74 586.83C618.655 586.85 618.571 586.871 618.49 586.889C618.462 586.894 618.435 586.9 618.408 586.905C617.9 587 617.413 587.057 617.013 586.939C616.577 586.814 615.862 587.017 615.096 587.146C614.595 587.233 614.068 587.293 613.608 587.257C613.34 587.236 613.18 587.493 612.998 587.758C612.829 588.005 612.641 588.258 612.361 588.286C612.22 588.3 612.052 588.259 611.874 588.216C611.717 588.177 611.551 588.137 611.384 588.125C611.233 588.114 610.943 588.28 610.544 588.489C610.542 588.492 610.538 588.496 610.535 588.5C610.453 588.6 610.223 588.73 609.941 588.839C609.142 588.81 608.17 588.754 607.215 588.689C607.006 588.529 606.825 588.316 606.678 588.04C606.572 587.842 606.475 587.604 606.382 587.36C606.255 587.028 606.125 586.685 605.949 586.413C605.812 586.2 605.66 586.118 605.558 586.21C605.511 586.254 605.474 586.332 605.442 586.404C605.405 586.487 605.372 586.56 605.33 586.559C605.3 586.557 605.268 586.5 605.228 586.431C605.164 586.321 605.08 586.179 604.957 586.176C604.501 586.165 603.977 586.216 603.464 586.263C602.892 586.315 602.329 586.361 601.882 586.313C601.382 586.259 600.666 586.461 599.946 586.654C599.443 586.789 598.937 586.919 598.509 586.962C598.089 587.003 597.664 586.862 597.255 586.723C596.768 586.555 596.303 586.389 595.897 586.547C595.813 586.58 595.696 586.805 595.549 587.084C595.485 587.205 595.415 587.334 595.341 587.465C595.303 587.55 595.263 587.637 595.221 587.719C594.84 587.685 594.46 587.647 594.083 587.601C594.075 587.568 594.068 587.533 594.06 587.499V587.496C593.867 586.709 593.734 585.651 593.063 586.099C592.888 586.211 592.725 586.462 592.574 586.684C592.426 586.902 592.286 587.095 592.167 587.107C592.031 587.121 591.933 586.926 591.837 586.716C591.698 586.419 591.563 586.088 591.238 586.222C591.216 586.231 591.192 586.242 591.167 586.251C590.93 586.344 590.576 586.474 590.093 586.823C589.241 586.585 588.363 586.29 587.433 585.915C586.241 585.436 585.108 584.883 583.395 584.021C583.347 583.998 583.222 583.899 583.172 583.878C582.599 583.631 582.092 583.444 581.652 583.286C581.385 583.191 581.122 583.155 580.883 583.186C580.41 583.292 579.76 583.521 578.907 583.837C577.691 584.313 576.45 585.176 575.498 586.343C574.55 587.511 573.909 588.873 573.795 590.234C573.7 591.153 574.034 592.162 574.717 592.988C574.995 593.344 575.267 593.624 575.539 593.842C575.984 594.196 576.358 594.501 576.636 594.766L576.367 594.597C576.891 595.164 577.802 596.061 578.759 596.907C578.822 596.987 578.888 597.067 578.955 597.146C579.454 597.732 579.832 598.473 580.257 599.22C580.355 599.391 580.456 599.565 580.559 599.734C581.338 601.043 583.952 601.99 585.437 602.349C585.463 602.356 585.492 602.364 585.519 602.372C585.867 602.461 586.194 602.569 586.575 602.686C587.482 602.95 588.758 603.368 591.472 603.375C592.236 603.52 593.001 603.629 593.769 603.699C593.837 603.705 593.905 603.711 593.974 603.717C600.532 604.118 605.546 603.899 613.203 602.228C613.519 602.134 613.837 602.038 614.156 601.935C614.248 601.919 614.34 601.9 614.434 601.882C616.253 601.567 618.659 600.891 620.008 600.007C621.72 598.903 622.739 597.933 623.515 597.126C624.089 596.68 624.642 596.215 625.169 595.735C628.319 592.718 630.672 590.061 633.187 588.491C633.513 588.296 633.842 588.1 634.168 587.908C635.471 587.144 636.779 586.41 638.101 585.714C639.318 585.075 640.544 584.46 641.765 583.885C642.536 583.668 643.281 583.503 643.946 583.372C644.316 583.3 644.665 583.235 644.967 583.186C645.225 583.202 645.523 583.195 645.798 583.152C646.897 582.97 648.508 582.428 649.77 582.096C649.977 582.041 650.17 581.992 650.354 581.948C651.396 581.95 652.466 581.995 653.536 582.075C653.606 582.013 653.678 581.95 653.75 581.884C654.652 581.067 655.817 581.062 657.633 581.149C658.425 581.188 659.342 581.247 660.425 581.279C661.123 581.3 661.51 581.021 661.83 580.794C661.842 580.785 661.855 580.776 661.868 580.767C661.959 580.712 662.045 580.66 662.13 580.619C662.466 580.454 662.784 580.699 663.161 580.983C663.649 581.351 664.249 581.788 665.077 581.483C667.685 580.496 668.602 581.307 669.247 581.952C669.434 582.14 669.595 582.314 669.761 582.419C670.304 582.757 671.06 582.607 671.709 582.38C671.822 582.34 671.949 582.332 672.087 582.355C672.838 582.507 673.737 582.967 674.418 583.418C674.746 583.637 675.227 583.746 675.778 583.869C676.35 583.996 677 584.14 677.642 584.447C679.263 585.222 680.05 585.628 680.681 585.958C680.859 586.052 681.023 586.139 681.184 586.229C681.695 586.512 682.321 586.816 682.904 587.135C683.605 587.514 684.236 587.917 684.614 588.291C685.307 588.494 685.905 588.704 686.345 588.876C687.215 589.392 688.094 589.878 689.015 590.355C690.068 590.898 691.471 590.936 692.884 590.369C694.292 589.813 695.59 588.62 695.875 587.1C696.151 585.586 696.484 584.153 696.571 582.926C696.645 581.698 696.35 580.725 695.693 580.148C695.117 579.645 694.534 579.107 693.97 578.563C692.671 577.442 691.345 576.593 690.048 575.887C687.255 574.383 684.551 573.489 681.955 572.862C680.144 572.43 678.378 572.108 676.773 571.815C676.612 571.786 676.444 571.756 676.286 571.727C675.857 571.49 675.454 571.258 675.118 571.046C673.987 570.521 672.871 570.144 672.021 569.945C670.925 569.689 670.153 569.831 669.531 569.956C669.103 570.043 668.741 570.127 668.393 570.09C668.207 570.071 667.957 570.034 667.663 569.99Z" fill="#E17C2F"/>
  <path d="M749.305 668.873L723.999 742.56H708.204L740.321 657.071H750.42L749.305 668.873ZM770.442 742.56L745.077 668.873L743.903 657.071H754.061L786.295 742.56H770.442ZM769.209 710.795V722.773H722.883V710.795H769.209Z" fill="black"/>
  <path d="M658.83 742.56H640.57L640.687 730.641H658.83C664.075 730.641 668.459 729.506 671.982 727.236C675.505 724.926 678.167 721.638 679.967 717.371C681.768 713.105 682.668 708.016 682.668 702.106V697.467C682.668 692.887 682.159 688.836 681.142 685.313C680.124 681.79 678.617 678.815 676.621 676.388C674.624 673.961 672.178 672.141 669.281 670.928C666.424 669.675 663.116 669.049 659.358 669.049H640.217V657.071H659.358C665.034 657.071 670.221 658.03 674.918 659.948C679.654 661.827 683.725 664.567 687.131 668.168C690.575 671.73 693.217 675.997 695.057 680.968C696.936 685.9 697.875 691.439 697.875 697.584V702.106C697.875 708.212 696.936 713.751 695.057 718.722C693.217 723.693 690.575 727.96 687.131 731.522C683.686 735.084 679.576 737.824 674.8 739.742C670.025 741.621 664.701 742.56 658.83 742.56ZM648.907 657.071V742.56H633.876V657.071H648.907Z" fill="black"/>
  <path d="M614.564 697.526V702.164C614.564 708.623 613.722 714.416 612.039 719.544C610.356 724.672 607.948 729.036 604.817 732.637C601.685 736.239 597.947 738.998 593.602 740.916C589.257 742.795 584.423 743.734 579.1 743.734C573.854 743.734 569.059 742.795 564.714 740.916C560.37 738.998 556.592 736.239 553.382 732.637C550.212 729.036 547.746 724.672 545.984 719.544C544.262 714.416 543.401 708.623 543.401 702.164V697.526C543.401 691.067 544.262 685.274 545.984 680.146C547.707 675.018 550.153 670.654 553.324 667.053C556.494 663.412 560.252 660.653 564.597 658.774C568.942 656.856 573.737 655.897 578.982 655.897C584.306 655.897 589.14 656.856 593.485 658.774C597.83 660.653 601.568 663.412 604.699 667.053C607.87 670.654 610.297 675.018 611.98 680.146C613.702 685.274 614.564 691.067 614.564 697.526ZM599.474 702.164V697.408C599.474 692.672 599.004 688.484 598.065 684.843C597.164 681.203 595.833 678.15 594.072 675.684C592.311 673.218 590.158 671.358 587.613 670.106C585.069 668.814 582.192 668.168 578.982 668.168C575.772 668.168 572.895 668.814 570.351 670.106C567.846 671.358 565.713 673.218 563.951 675.684C562.229 678.15 560.898 681.203 559.959 684.843C559.019 688.484 558.549 692.672 558.549 697.408V702.164C558.549 706.901 559.019 711.089 559.959 714.729C560.898 718.37 562.248 721.442 564.01 723.948C565.81 726.453 567.963 728.351 570.469 729.643C573.013 730.895 575.89 731.522 579.1 731.522C582.349 731.522 585.226 730.895 587.731 729.643C590.275 728.351 592.408 726.453 594.131 723.948C595.892 721.442 597.223 718.37 598.123 714.729C599.024 711.089 599.474 706.901 599.474 702.164Z" fill="black"/>
  <path d="M512.639 692.711V704.572H467.311V692.711H512.639ZM471.127 657.071V742.56H456.096V657.071H471.127ZM524.088 657.071V742.56H509.057V657.071H524.088Z" fill="black"/>
  <path d="M436.784 697.526V702.164C436.784 708.623 435.942 714.416 434.259 719.544C432.576 724.672 430.169 729.036 427.037 732.637C423.906 736.239 420.167 738.998 415.822 740.916C411.478 742.795 406.643 743.734 401.32 743.734C396.075 743.734 391.28 742.795 386.935 740.916C382.59 738.998 378.812 736.239 375.603 732.637C372.432 729.036 369.966 724.672 368.205 719.544C366.482 714.416 365.621 708.623 365.621 702.164V697.526C365.621 691.067 366.482 685.274 368.205 680.146C369.927 675.018 372.373 670.654 375.544 667.053C378.715 663.412 382.472 660.653 386.817 658.774C391.162 656.856 395.957 655.897 401.202 655.897C406.526 655.897 411.36 656.856 415.705 658.774C420.05 660.653 423.788 663.412 426.92 667.053C430.09 670.654 432.517 675.018 434.2 680.146C435.923 685.274 436.784 691.067 436.784 697.526ZM421.694 702.164V697.408C421.694 692.672 421.224 688.484 420.285 684.843C419.385 681.203 418.054 678.15 416.292 675.684C414.531 673.218 412.378 671.358 409.834 670.106C407.289 668.814 404.412 668.168 401.202 668.168C397.993 668.168 395.116 668.814 392.571 670.106C390.066 671.358 387.933 673.218 386.171 675.684C384.449 678.15 383.118 681.203 382.179 684.843C381.239 688.484 380.77 692.672 380.77 697.408V702.164C380.77 706.901 381.239 711.089 382.179 714.729C383.118 718.37 384.469 721.442 386.23 723.948C388.031 726.453 390.184 728.351 392.689 729.643C395.233 730.895 398.11 731.522 401.32 731.522C404.569 731.522 407.446 730.895 409.951 729.643C412.495 728.351 414.629 726.453 416.351 723.948C418.112 721.442 419.443 718.37 420.344 714.729C421.244 711.089 421.694 706.901 421.694 702.164Z" fill="black"/>
  <path d="M319.182 710.854H296.988V698.935H319.182C323.018 698.935 326.111 698.328 328.459 697.115C330.808 695.862 332.53 694.14 333.626 691.948C334.722 689.756 335.27 687.251 335.27 684.432C335.27 681.731 334.722 679.207 333.626 676.858C332.53 674.509 330.808 672.631 328.459 671.221C326.111 669.773 323.018 669.049 319.182 669.049H301.685V742.56H286.654V657.071H319.182C325.797 657.071 331.434 658.245 336.092 660.594C340.75 662.943 344.312 666.172 346.778 670.282C349.244 674.392 350.477 679.07 350.477 684.315C350.477 689.834 349.244 694.57 346.778 698.524C344.312 702.477 340.75 705.531 336.092 707.683C331.434 709.797 325.797 710.854 319.182 710.854Z" fill="black"/>
</svg>